<svg width="92" height="117" viewBox="0 0 92 117" fill="none" xmlns="http://www.w3.org/2000/svg">
<path d="M30.4434 107.955H26.7812L26.7617 105.709H29.7305C30.2643 105.709 30.6908 105.65 31.0098 105.533C31.3288 105.41 31.5599 105.23 31.7031 104.996C31.8529 104.762 31.9277 104.469 31.9277 104.117C31.9277 103.714 31.8529 103.388 31.7031 103.141C31.5534 102.893 31.3158 102.714 30.9902 102.604C30.6712 102.486 30.2578 102.428 29.75 102.428H28.0703V114H24.6426V99.7812H29.75C30.6289 99.7812 31.4134 99.8626 32.1035 100.025C32.7936 100.182 33.3796 100.423 33.8613 100.748C34.3496 101.074 34.7207 101.484 34.9746 101.979C35.2285 102.467 35.3555 103.043 35.3555 103.707C35.3555 104.286 35.2318 104.83 34.9844 105.338C34.737 105.846 34.3236 106.259 33.7441 106.578C33.1712 106.891 32.3867 107.053 31.3906 107.066L30.4434 107.955ZM30.3066 114H25.9512L27.123 111.363H30.3066C30.7754 111.363 31.1497 111.292 31.4297 111.148C31.7161 110.999 31.9212 110.803 32.0449 110.562C32.1751 110.315 32.2402 110.042 32.2402 109.742C32.2402 109.378 32.1784 109.062 32.0547 108.795C31.9375 108.528 31.7487 108.323 31.4883 108.18C31.2279 108.03 30.8796 107.955 30.4434 107.955H27.5625L27.582 105.709H31.0293L31.8301 106.607C32.7806 106.568 33.5326 106.702 34.0859 107.008C34.6458 107.314 35.0462 107.717 35.2871 108.219C35.528 108.72 35.6484 109.244 35.6484 109.791C35.6484 110.722 35.4466 111.5 35.043 112.125C34.6458 112.75 34.0501 113.219 33.2559 113.531C32.4616 113.844 31.4785 114 30.3066 114ZM42.8848 111.344V106.988C42.8848 106.689 42.8424 106.432 42.7578 106.217C42.6732 106.002 42.5397 105.836 42.3574 105.719C42.1751 105.595 41.931 105.533 41.625 105.533C41.3776 105.533 41.166 105.576 40.9902 105.66C40.8145 105.745 40.681 105.872 40.5898 106.041C40.4987 106.21 40.4531 106.425 40.4531 106.686H37.1621C37.1621 106.197 37.2695 105.745 37.4844 105.328C37.7057 104.905 38.0182 104.537 38.4219 104.225C38.832 103.912 39.3203 103.671 39.8867 103.502C40.4596 103.326 41.0977 103.238 41.8008 103.238C42.6406 103.238 43.3893 103.378 44.0469 103.658C44.7109 103.938 45.235 104.358 45.6191 104.918C46.0033 105.471 46.1953 106.168 46.1953 107.008V111.334C46.1953 112.024 46.2344 112.548 46.3125 112.906C46.3906 113.258 46.5013 113.567 46.6445 113.834V114H43.3438C43.1875 113.674 43.0703 113.277 42.9922 112.809C42.9206 112.333 42.8848 111.845 42.8848 111.344ZM43.2852 107.545L43.3047 109.303H41.8496C41.5436 109.303 41.2832 109.345 41.0684 109.43C40.86 109.514 40.6908 109.632 40.5605 109.781C40.4368 109.924 40.3457 110.087 40.2871 110.27C40.235 110.452 40.209 110.644 40.209 110.846C40.209 111.041 40.2546 111.217 40.3457 111.373C40.4434 111.523 40.5736 111.64 40.7363 111.725C40.8991 111.809 41.0814 111.852 41.2832 111.852C41.6478 111.852 41.957 111.783 42.2109 111.646C42.4714 111.503 42.6699 111.331 42.8066 111.129C42.9434 110.927 43.0117 110.738 43.0117 110.562L43.7344 111.91C43.6042 112.171 43.4544 112.434 43.2852 112.701C43.1224 112.968 42.9173 113.215 42.6699 113.443C42.429 113.665 42.1328 113.847 41.7812 113.99C41.4297 114.127 41.0033 114.195 40.502 114.195C39.8509 114.195 39.252 114.062 38.7051 113.795C38.1647 113.528 37.7318 113.157 37.4062 112.682C37.0807 112.2 36.918 111.646 36.918 111.021C36.918 110.475 37.0156 109.986 37.2109 109.557C37.4128 109.127 37.7155 108.762 38.1191 108.463C38.5228 108.163 39.0371 107.936 39.6621 107.779C40.2871 107.623 41.0228 107.545 41.8691 107.545H43.2852ZM52.4844 111.656C52.7904 111.656 53.0508 111.601 53.2656 111.49C53.487 111.373 53.653 111.21 53.7637 111.002C53.8809 110.787 53.9362 110.53 53.9297 110.23H57.0254C57.0319 111.025 56.8366 111.721 56.4395 112.32C56.0488 112.913 55.515 113.375 54.8379 113.707C54.1673 114.033 53.4089 114.195 52.5625 114.195C51.7357 114.195 51.013 114.062 50.3945 113.795C49.776 113.521 49.2585 113.144 48.8418 112.662C48.4316 112.174 48.1224 111.604 47.9141 110.953C47.7122 110.302 47.6113 109.596 47.6113 108.834V108.609C47.6113 107.848 47.7122 107.141 47.9141 106.49C48.1224 105.833 48.4316 105.263 48.8418 104.781C49.2585 104.293 49.7728 103.915 50.3848 103.648C51.0033 103.375 51.7227 103.238 52.543 103.238C53.4219 103.238 54.1966 103.404 54.8672 103.736C55.5443 104.068 56.0749 104.55 56.459 105.182C56.8431 105.813 57.0319 106.578 57.0254 107.477H53.9297C53.9362 107.158 53.8874 106.871 53.7832 106.617C53.679 106.363 53.5163 106.161 53.2949 106.012C53.0801 105.855 52.8034 105.777 52.4648 105.777C52.1263 105.777 51.8529 105.852 51.6445 106.002C51.4362 106.152 51.2767 106.36 51.166 106.627C51.0618 106.887 50.9902 107.187 50.9512 107.525C50.9186 107.864 50.9023 108.225 50.9023 108.609V108.834C50.9023 109.225 50.9186 109.592 50.9512 109.938C50.9902 110.276 51.0651 110.576 51.1758 110.836C51.2865 111.09 51.446 111.292 51.6543 111.441C51.8626 111.585 52.1393 111.656 52.4844 111.656ZM61.752 98.9902V114H58.4609V98.9902H61.752ZM68.5098 103.434L63.9199 108.814L61.5176 111.217L60.082 109.127L62.084 106.52L64.5645 103.434H68.5098ZM64.9844 114L62.1621 109.186L64.5938 107.457L68.7539 114H64.9844Z" fill="#272727"/>
<g filter="url(#filter0_d_13_254)">
<circle cx="46" cy="42" r="32" fill="#FF4D2E"/>
<circle cx="46" cy="42" r="34" stroke="white" stroke-width="4"/>
</g>
<path fill-rule="evenodd" clip-rule="evenodd" d="M24.5 40.8268C23.8333 41.2117 23.8333 42.174 24.5 42.5589L44.75 54.2502C45.4167 54.6351 46.25 54.154 46.25 53.3842V45.1928H64C66.2091 45.1928 68 43.402 68 41.1928C68 38.9837 66.2091 37.1928 64 37.1928H46.25V30.0015C46.25 29.2317 45.4167 28.7506 44.75 29.1355L24.5 40.8268Z" fill="white"/>
<defs>
<filter id="filter0_d_13_254" x="0" y="0" width="92" height="92" filterUnits="userSpaceOnUse" color-interpolation-filters="sRGB">
<feFlood flood-opacity="0" result="BackgroundImageFix"/>
<feColorMatrix in="SourceAlpha" type="matrix" values="0 0 0 0 0 0 0 0 0 0 0 0 0 0 0 0 0 0 127 0" result="hardAlpha"/>
<feMorphology radius="2" operator="dilate" in="SourceAlpha" result="effect1_dropShadow_13_254"/>
<feOffset dy="4"/>
<feGaussianBlur stdDeviation="4"/>
<feComposite in2="hardAlpha" operator="out"/>
<feColorMatrix type="matrix" values="0 0 0 0 0 0 0 0 0 0 0 0 0 0 0 0 0 0 0.3 0"/>
<feBlend mode="normal" in2="BackgroundImageFix" result="effect1_dropShadow_13_254"/>
<feBlend mode="normal" in="SourceGraphic" in2="effect1_dropShadow_13_254" result="shape"/>
</filter>
</defs>
</svg>
