<svg width="92" height="117" viewBox="0 0 92 117" fill="none" xmlns="http://www.w3.org/2000/svg">
<path d="M39.9258 111.363V114H32.3477V111.363H39.9258ZM33.5684 99.7812V114H30.1406V99.7812H33.5684ZM38.9492 105.426V107.975H32.3477V105.426H38.9492ZM39.9551 99.7812V102.428H32.3477V99.7812H39.9551ZM43.9688 103.434L45.4531 106.344L46.9863 103.434H50.4043L47.6309 108.58L50.5508 114H47.1035L45.4531 110.875L43.8125 114H40.3652L43.2852 108.58L40.5215 103.434H43.9688ZM54.9648 103.434V114H51.6641V103.434H54.9648ZM51.4688 100.709C51.4688 100.24 51.638 99.8561 51.9766 99.5566C52.3151 99.2572 52.7546 99.1074 53.2949 99.1074C53.8353 99.1074 54.2747 99.2572 54.6133 99.5566C54.9518 99.8561 55.1211 100.24 55.1211 100.709C55.1211 101.178 54.9518 101.562 54.6133 101.861C54.2747 102.161 53.8353 102.311 53.2949 102.311C52.7546 102.311 52.3151 102.161 51.9766 101.861C51.638 101.562 51.4688 101.178 51.4688 100.709ZM62.5625 103.434V105.719H56.1953V103.434H62.5625ZM57.5332 100.807H60.8242V110.553C60.8242 110.833 60.8568 111.051 60.9219 111.207C60.987 111.357 61.0977 111.464 61.2539 111.529C61.4167 111.588 61.6315 111.617 61.8984 111.617C62.0872 111.617 62.2435 111.614 62.3672 111.607C62.4909 111.594 62.6081 111.578 62.7188 111.559V113.912C62.4388 114.003 62.1458 114.072 61.8398 114.117C61.5339 114.169 61.2083 114.195 60.8633 114.195C60.1602 114.195 59.5579 114.085 59.0566 113.863C58.5618 113.642 58.1842 113.294 57.9238 112.818C57.6634 112.343 57.5332 111.725 57.5332 110.963V100.807Z" fill="#272727"/>
<g filter="url(#filter0_d_13_248)">
<circle cx="46" cy="42" r="32" fill="#FF4D2E"/>
<circle cx="46" cy="42" r="34" stroke="white" stroke-width="4"/>
</g>
<path fill-rule="evenodd" clip-rule="evenodd" d="M28.9705 24.9706C27.2132 26.728 27.2132 29.5772 28.9705 31.3346L39.5774 41.9414L28.9708 52.548C27.2134 54.3054 27.2134 57.1546 28.9708 58.912C30.7282 60.6693 33.5774 60.6693 35.3348 58.912L45.9413 48.3054L56.5477 58.9118C58.305 60.6691 61.1543 60.6691 62.9116 58.9118C64.669 57.1544 64.669 54.3052 62.9116 52.5478L52.3053 41.9414L62.9119 31.3348C64.6693 29.5774 64.6693 26.7282 62.9119 24.9708C61.1546 23.2135 58.3053 23.2135 56.548 24.9708L45.9413 35.5775L35.3345 24.9706C33.5771 23.2133 30.7279 23.2133 28.9705 24.9706Z" fill="white"/>
<defs>
<filter id="filter0_d_13_248" x="0" y="0" width="92" height="92" filterUnits="userSpaceOnUse" color-interpolation-filters="sRGB">
<feFlood flood-opacity="0" result="BackgroundImageFix"/>
<feColorMatrix in="SourceAlpha" type="matrix" values="0 0 0 0 0 0 0 0 0 0 0 0 0 0 0 0 0 0 127 0" result="hardAlpha"/>
<feMorphology radius="2" operator="dilate" in="SourceAlpha" result="effect1_dropShadow_13_248"/>
<feOffset dy="4"/>
<feGaussianBlur stdDeviation="4"/>
<feComposite in2="hardAlpha" operator="out"/>
<feColorMatrix type="matrix" values="0 0 0 0 0 0 0 0 0 0 0 0 0 0 0 0 0 0 0.3 0"/>
<feBlend mode="normal" in2="BackgroundImageFix" result="effect1_dropShadow_13_248"/>
<feBlend mode="normal" in="SourceGraphic" in2="effect1_dropShadow_13_248" result="shape"/>
</filter>
</defs>
</svg>
