<svg width="38" height="38" viewBox="0 0 38 38" fill="none" xmlns="http://www.w3.org/2000/svg">
<path fill-rule="evenodd" clip-rule="evenodd" d="M1.97052 1.97064C0.213159 3.728 0.213159 6.57725 1.97052 8.33461L12.5774 18.9414L1.9708 29.548C0.213439 31.3054 0.213439 34.1546 1.9708 35.912C3.72816 37.6693 6.5774 37.6693 8.33476 35.912L18.9413 25.3054L29.5477 35.9118C31.305 37.6691 34.1543 37.6691 35.9116 35.9118C37.669 34.1544 37.669 31.3052 35.9116 29.5478L25.3053 18.9414L35.9119 8.3348C37.6693 6.57744 37.6693 3.72819 35.9119 1.97084C34.1546 0.213477 31.3053 0.213475 29.548 1.97084L18.9413 12.5775L8.33448 1.97064C6.57712 0.213285 3.72788 0.213285 1.97052 1.97064Z" fill="white"/>
</svg>
