<svg width="174" height="172" viewBox="0 0 174 172" fill="none" xmlns="http://www.w3.org/2000/svg">
<path d="M51.1641 129.883V136.891C50.875 137.211 50.4297 137.555 49.8281 137.922C49.2344 138.281 48.4844 138.59 47.5781 138.848C46.6719 139.105 45.6055 139.234 44.3789 139.234C43.2461 139.234 42.2188 139.055 41.2969 138.695C40.375 138.328 39.582 137.793 38.918 137.09C38.2617 136.379 37.7539 135.512 37.3945 134.488C37.043 133.457 36.8672 132.277 36.8672 130.949V130C36.8672 128.672 37.0469 127.492 37.4062 126.461C37.7656 125.43 38.2695 124.562 38.918 123.859C39.5742 123.148 40.3438 122.609 41.2266 122.242C42.1172 121.875 43.0938 121.691 44.1562 121.691C45.7266 121.691 47.0039 121.941 47.9883 122.441C48.9727 122.934 49.7188 123.617 50.2266 124.492C50.7344 125.359 51.043 126.363 51.1523 127.504H47.2031C47.125 126.941 46.9766 126.465 46.7578 126.074C46.5469 125.676 46.2422 125.375 45.8438 125.172C45.4453 124.961 44.9297 124.855 44.2969 124.855C43.8047 124.855 43.3555 124.961 42.9492 125.172C42.5508 125.383 42.2109 125.703 41.9297 126.133C41.6484 126.555 41.4297 127.086 41.2734 127.727C41.125 128.367 41.0508 129.117 41.0508 129.977V130.949C41.0508 131.801 41.1211 132.547 41.2617 133.188C41.4102 133.828 41.6289 134.363 41.918 134.793C42.2148 135.215 42.5898 135.535 43.043 135.754C43.5039 135.965 44.0469 136.07 44.6719 136.07C45.1094 136.07 45.4844 136.035 45.7969 135.965C46.1094 135.887 46.3672 135.793 46.5703 135.684C46.7812 135.566 46.9414 135.457 47.0508 135.355V132.707H44.1914V129.883H51.1641ZM60.7852 135.918V126.32H64.7461V139H61.043L60.7852 135.918ZM61.1602 133.34L62.1914 133.316C62.1914 134.168 62.0898 134.957 61.8867 135.684C61.6836 136.402 61.3828 137.027 60.9844 137.559C60.5938 138.09 60.1094 138.504 59.5312 138.801C58.9609 139.09 58.3008 139.234 57.5508 139.234C56.9258 139.234 56.3516 139.148 55.8281 138.977C55.3125 138.797 54.8672 138.52 54.4922 138.145C54.1172 137.762 53.8242 137.273 53.6133 136.68C53.4102 136.078 53.3086 135.359 53.3086 134.523V126.32H57.2578V134.547C57.2578 134.828 57.293 135.07 57.3633 135.273C57.4336 135.477 57.5352 135.648 57.668 135.789C57.8008 135.922 57.9648 136.023 58.1602 136.094C58.3633 136.156 58.5938 136.188 58.8516 136.188C59.4453 136.188 59.9102 136.062 60.2461 135.812C60.582 135.562 60.8164 135.223 60.9492 134.793C61.0898 134.363 61.1602 133.879 61.1602 133.34ZM71.0977 126.32V139H67.1367V126.32H71.0977ZM66.9023 123.051C66.9023 122.488 67.1055 122.027 67.5117 121.668C67.918 121.309 68.4453 121.129 69.0938 121.129C69.7422 121.129 70.2695 121.309 70.6758 121.668C71.082 122.027 71.2852 122.488 71.2852 123.051C71.2852 123.613 71.082 124.074 70.6758 124.434C70.2695 124.793 69.7422 124.973 69.0938 124.973C68.4453 124.973 67.918 124.793 67.5117 124.434C67.1055 124.074 66.9023 123.613 66.9023 123.051ZM80.8242 136.094V121H84.7969V139H81.2344L80.8242 136.094ZM73.043 132.812V132.566C73.043 131.605 73.1484 130.73 73.3594 129.941C73.5703 129.145 73.8828 128.461 74.2969 127.891C74.7109 127.312 75.2266 126.867 75.8438 126.555C76.4609 126.242 77.1719 126.086 77.9766 126.086C78.6953 126.086 79.3242 126.254 79.8633 126.59C80.4023 126.918 80.8633 127.379 81.2461 127.973C81.6289 128.566 81.9414 129.262 82.1836 130.059C82.4258 130.848 82.6094 131.699 82.7344 132.613V132.906C82.6094 133.766 82.4258 134.578 82.1836 135.344C81.9414 136.102 81.6289 136.773 81.2461 137.359C80.8633 137.945 80.3984 138.406 79.8516 138.742C79.3125 139.07 78.6797 139.234 77.9531 139.234C77.1484 139.234 76.4375 139.074 75.8203 138.754C75.2109 138.434 74.6992 137.984 74.2852 137.406C73.8789 136.828 73.5703 136.148 73.3594 135.367C73.1484 134.586 73.043 133.734 73.043 132.812ZM76.9922 132.566V132.812C76.9922 133.289 77.0234 133.73 77.0859 134.137C77.1484 134.543 77.2539 134.902 77.4023 135.215C77.5586 135.52 77.7617 135.758 78.0117 135.93C78.2695 136.102 78.5859 136.188 78.9609 136.188C79.4688 136.188 79.8867 136.066 80.2148 135.824C80.5508 135.582 80.7969 135.238 80.9531 134.793C81.1172 134.348 81.1875 133.824 81.1641 133.223V132.297C81.1797 131.781 81.1445 131.328 81.0586 130.938C80.9727 130.539 80.8359 130.207 80.6484 129.941C80.4688 129.676 80.2383 129.477 79.957 129.344C79.6836 129.203 79.3594 129.133 78.9844 129.133C78.6172 129.133 78.3047 129.219 78.0469 129.391C77.7969 129.562 77.5938 129.805 77.4375 130.117C77.2812 130.422 77.168 130.785 77.0977 131.207C77.0273 131.621 76.9922 132.074 76.9922 132.566ZM93.1758 139.234C92.1445 139.234 91.2227 139.074 90.4102 138.754C89.5977 138.426 88.9102 137.977 88.3477 137.406C87.793 136.836 87.3672 136.18 87.0703 135.438C86.7812 134.695 86.6367 133.91 86.6367 133.082V132.637C86.6367 131.707 86.7656 130.848 87.0234 130.059C87.2812 129.262 87.6641 128.566 88.1719 127.973C88.6797 127.379 89.3164 126.918 90.082 126.59C90.8477 126.254 91.7383 126.086 92.7539 126.086C93.6523 126.086 94.457 126.23 95.168 126.52C95.8789 126.809 96.4805 127.223 96.9727 127.762C97.4727 128.301 97.8516 128.953 98.1094 129.719C98.375 130.484 98.5078 131.344 98.5078 132.297V133.902H88.1484V131.43H94.6523V131.125C94.6602 130.703 94.5859 130.344 94.4297 130.047C94.2812 129.75 94.0625 129.523 93.7734 129.367C93.4844 129.211 93.1328 129.133 92.7188 129.133C92.2891 129.133 91.9336 129.227 91.6523 129.414C91.3789 129.602 91.1641 129.859 91.0078 130.188C90.8594 130.508 90.7539 130.879 90.6914 131.301C90.6289 131.723 90.5977 132.168 90.5977 132.637V133.082C90.5977 133.551 90.6602 133.977 90.7852 134.359C90.918 134.742 91.1055 135.07 91.3477 135.344C91.5977 135.609 91.8945 135.816 92.2383 135.965C92.5898 136.113 92.9883 136.188 93.4336 136.188C93.9727 136.188 94.5039 136.086 95.0273 135.883C95.5508 135.68 96 135.344 96.375 134.875L98.168 137.008C97.9102 137.375 97.543 137.73 97.0664 138.074C96.5977 138.418 96.0352 138.699 95.3789 138.918C94.7227 139.129 93.9883 139.234 93.1758 139.234ZM110.074 129.004V139H106.125V126.32H109.828L110.074 129.004ZM109.594 132.227L108.691 132.25C108.691 131.359 108.797 130.539 109.008 129.789C109.219 129.039 109.531 128.387 109.945 127.832C110.359 127.277 110.867 126.848 111.469 126.543C112.078 126.238 112.781 126.086 113.578 126.086C114.133 126.086 114.637 126.172 115.09 126.344C115.543 126.508 115.934 126.77 116.262 127.129C116.59 127.48 116.84 127.941 117.012 128.512C117.191 129.074 117.281 129.75 117.281 130.539V139H113.332V131.043C113.332 130.504 113.27 130.098 113.145 129.824C113.027 129.551 112.855 129.367 112.629 129.273C112.402 129.18 112.125 129.133 111.797 129.133C111.453 129.133 111.145 129.211 110.871 129.367C110.598 129.523 110.363 129.742 110.168 130.023C109.98 130.297 109.836 130.621 109.734 130.996C109.641 131.371 109.594 131.781 109.594 132.227ZM116.836 132.227L115.734 132.25C115.734 131.359 115.832 130.539 116.027 129.789C116.23 129.039 116.531 128.387 116.93 127.832C117.336 127.277 117.84 126.848 118.441 126.543C119.043 126.238 119.742 126.086 120.539 126.086C121.117 126.086 121.648 126.172 122.133 126.344C122.617 126.516 123.035 126.793 123.387 127.176C123.738 127.559 124.012 128.066 124.207 128.699C124.402 129.324 124.5 130.098 124.5 131.02V139H120.539V131.02C120.539 130.496 120.477 130.102 120.352 129.836C120.234 129.562 120.062 129.379 119.836 129.285C119.609 129.184 119.34 129.133 119.027 129.133C118.652 129.133 118.328 129.211 118.055 129.367C117.781 129.523 117.551 129.742 117.363 130.023C117.184 130.297 117.051 130.621 116.965 130.996C116.879 131.371 116.836 131.781 116.836 132.227ZM130.652 137.512L133.934 126.32H138.176L133.078 140.887C132.969 141.207 132.824 141.551 132.645 141.918C132.465 142.293 132.219 142.648 131.906 142.984C131.594 143.32 131.191 143.594 130.699 143.805C130.215 144.016 129.613 144.121 128.895 144.121C128.512 144.121 128.23 144.102 128.051 144.062C127.879 144.031 127.613 143.973 127.254 143.887V141.062C127.355 141.062 127.441 141.062 127.512 141.062C127.59 141.062 127.676 141.062 127.77 141.062C128.191 141.062 128.527 141.02 128.777 140.934C129.035 140.848 129.23 140.723 129.363 140.559C129.504 140.395 129.613 140.195 129.691 139.961L130.652 137.512ZM129.82 126.32L132.316 135.191L132.75 139.375H130.102L125.59 126.32H129.82ZM62.7422 162.465C62.7422 162.199 62.7031 161.961 62.625 161.75C62.5469 161.531 62.4023 161.328 62.1914 161.141C61.9805 160.953 61.6758 160.766 61.2773 160.578C60.8867 160.383 60.3711 160.18 59.7305 159.969C58.9805 159.719 58.2578 159.438 57.5625 159.125C56.8672 158.805 56.2461 158.434 55.6992 158.012C55.1523 157.582 54.7188 157.082 54.3984 156.512C54.0781 155.934 53.918 155.262 53.918 154.496C53.918 153.762 54.082 153.102 54.4102 152.516C54.7383 151.922 55.1953 151.418 55.7812 151.004C56.375 150.582 57.0703 150.262 57.8672 150.043C58.6641 149.816 59.5352 149.703 60.4805 149.703C61.7305 149.703 62.832 149.922 63.7852 150.359C64.7461 150.789 65.4961 151.402 66.0352 152.199C66.582 152.988 66.8555 153.922 66.8555 155H62.7656C62.7656 154.57 62.6758 154.191 62.4961 153.863C62.3242 153.535 62.0625 153.277 61.7109 153.09C61.3594 152.902 60.918 152.809 60.3867 152.809C59.8711 152.809 59.4375 152.887 59.0859 153.043C58.7344 153.199 58.4688 153.41 58.2891 153.676C58.1094 153.934 58.0195 154.219 58.0195 154.531C58.0195 154.789 58.0898 155.023 58.2305 155.234C58.3789 155.438 58.5859 155.629 58.8516 155.809C59.125 155.988 59.4531 156.16 59.8359 156.324C60.2266 156.488 60.6641 156.648 61.1484 156.805C62.0547 157.094 62.8594 157.418 63.5625 157.777C64.2734 158.129 64.8711 158.531 65.3555 158.984C65.8477 159.43 66.2188 159.938 66.4688 160.508C66.7266 161.078 66.8555 161.723 66.8555 162.441C66.8555 163.207 66.707 163.887 66.4102 164.48C66.1133 165.074 65.6875 165.578 65.1328 165.992C64.5781 166.398 63.9141 166.707 63.1406 166.918C62.3672 167.129 61.5039 167.234 60.5508 167.234C59.6758 167.234 58.8125 167.125 57.9609 166.906C57.1172 166.68 56.3516 166.336 55.6641 165.875C54.9766 165.406 54.4258 164.809 54.0117 164.082C53.6055 163.348 53.4023 162.477 53.4023 161.469H57.5273C57.5273 161.969 57.5938 162.391 57.7266 162.734C57.8594 163.078 58.0547 163.355 58.3125 163.566C58.5703 163.77 58.8867 163.918 59.2617 164.012C59.6367 164.098 60.0664 164.141 60.5508 164.141C61.0742 164.141 61.4961 164.066 61.8164 163.918C62.1367 163.762 62.3711 163.559 62.5195 163.309C62.668 163.051 62.7422 162.77 62.7422 162.465ZM72.9609 149V167H69V149H72.9609ZM81.5391 167.234C80.5078 167.234 79.5859 167.074 78.7734 166.754C77.9609 166.426 77.2734 165.977 76.7109 165.406C76.1562 164.836 75.7305 164.18 75.4336 163.438C75.1445 162.695 75 161.91 75 161.082V160.637C75 159.707 75.1289 158.848 75.3867 158.059C75.6445 157.262 76.0273 156.566 76.5352 155.973C77.043 155.379 77.6797 154.918 78.4453 154.59C79.2109 154.254 80.1016 154.086 81.1172 154.086C82.0156 154.086 82.8203 154.23 83.5312 154.52C84.2422 154.809 84.8438 155.223 85.3359 155.762C85.8359 156.301 86.2148 156.953 86.4727 157.719C86.7383 158.484 86.8711 159.344 86.8711 160.297V161.902H76.5117V159.43H83.0156V159.125C83.0234 158.703 82.9492 158.344 82.793 158.047C82.6445 157.75 82.4258 157.523 82.1367 157.367C81.8477 157.211 81.4961 157.133 81.082 157.133C80.6523 157.133 80.2969 157.227 80.0156 157.414C79.7422 157.602 79.5273 157.859 79.3711 158.188C79.2227 158.508 79.1172 158.879 79.0547 159.301C78.9922 159.723 78.9609 160.168 78.9609 160.637V161.082C78.9609 161.551 79.0234 161.977 79.1484 162.359C79.2812 162.742 79.4688 163.07 79.7109 163.344C79.9609 163.609 80.2578 163.816 80.6016 163.965C80.9531 164.113 81.3516 164.188 81.7969 164.188C82.3359 164.188 82.8672 164.086 83.3906 163.883C83.9141 163.68 84.3633 163.344 84.7383 162.875L86.5312 165.008C86.2734 165.375 85.9062 165.73 85.4297 166.074C84.9609 166.418 84.3984 166.699 83.7422 166.918C83.0859 167.129 82.3516 167.234 81.5391 167.234ZM92.6484 154.32V167H88.6875V154.32H92.6484ZM88.4531 151.051C88.4531 150.488 88.6562 150.027 89.0625 149.668C89.4688 149.309 89.9961 149.129 90.6445 149.129C91.293 149.129 91.8203 149.309 92.2266 149.668C92.6328 150.027 92.8359 150.488 92.8359 151.051C92.8359 151.613 92.6328 152.074 92.2266 152.434C91.8203 152.793 91.293 152.973 90.6445 152.973C89.9961 152.973 89.4688 152.793 89.0625 152.434C88.6562 152.074 88.4531 151.613 88.4531 151.051ZM103.055 154.32H106.641V166.508C106.641 167.68 106.371 168.672 105.832 169.484C105.293 170.305 104.539 170.926 103.57 171.348C102.609 171.777 101.484 171.992 100.195 171.992C99.625 171.992 99.043 171.918 98.4492 171.77C97.8555 171.629 97.3008 171.418 96.7852 171.137C96.2695 170.855 95.8359 170.508 95.4844 170.094L97.1367 167.773C97.457 168.133 97.8594 168.438 98.3438 168.688C98.8281 168.945 99.3984 169.074 100.055 169.074C100.625 169.074 101.102 168.973 101.484 168.77C101.875 168.566 102.172 168.27 102.375 167.879C102.578 167.496 102.68 167.031 102.68 166.484V157.32L103.055 154.32ZM94.6289 160.812V160.566C94.6289 159.605 94.7461 158.73 94.9805 157.941C95.2227 157.145 95.5664 156.461 96.0117 155.891C96.4648 155.312 97.0117 154.867 97.6523 154.555C98.293 154.242 99.0156 154.086 99.8203 154.086C100.688 154.086 101.398 154.254 101.953 154.59C102.516 154.918 102.965 155.379 103.301 155.973C103.645 156.566 103.91 157.262 104.098 158.059C104.293 158.848 104.457 159.699 104.59 160.613V160.906C104.457 161.766 104.273 162.578 104.039 163.344C103.812 164.102 103.516 164.773 103.148 165.359C102.781 165.945 102.32 166.406 101.766 166.742C101.219 167.07 100.562 167.234 99.7969 167.234C99 167.234 98.2812 167.074 97.6406 166.754C97.0078 166.434 96.4648 165.984 96.0117 165.406C95.5664 164.828 95.2227 164.148 94.9805 163.367C94.7461 162.586 94.6289 161.734 94.6289 160.812ZM98.5781 160.566V160.812C98.5781 161.289 98.6211 161.73 98.707 162.137C98.8008 162.543 98.9414 162.902 99.1289 163.215C99.3164 163.52 99.5469 163.758 99.8203 163.93C100.102 164.102 100.43 164.188 100.805 164.188C101.375 164.188 101.836 164.066 102.188 163.824C102.539 163.582 102.793 163.238 102.949 162.793C103.105 162.348 103.172 161.824 103.148 161.223V160.297C103.164 159.781 103.129 159.328 103.043 158.938C102.957 158.539 102.82 158.207 102.633 157.941C102.453 157.676 102.211 157.477 101.906 157.344C101.609 157.203 101.25 157.133 100.828 157.133C100.461 157.133 100.137 157.219 99.8555 157.391C99.5742 157.562 99.3398 157.805 99.1523 158.117C98.9648 158.422 98.8203 158.785 98.7188 159.207C98.625 159.621 98.5781 160.074 98.5781 160.566ZM112.781 149V167H108.832V149H112.781ZM112.312 160.227L111.387 160.25C111.387 159.359 111.496 158.539 111.715 157.789C111.934 157.039 112.246 156.387 112.652 155.832C113.059 155.277 113.547 154.848 114.117 154.543C114.688 154.238 115.32 154.086 116.016 154.086C116.641 154.086 117.211 154.176 117.727 154.355C118.25 154.535 118.699 154.824 119.074 155.223C119.457 155.621 119.75 156.141 119.953 156.781C120.164 157.422 120.27 158.203 120.27 159.125V167H116.297V159.102C116.297 158.586 116.223 158.188 116.074 157.906C115.934 157.617 115.73 157.418 115.465 157.309C115.199 157.191 114.875 157.133 114.492 157.133C114.031 157.133 113.656 157.211 113.367 157.367C113.078 157.523 112.855 157.742 112.699 158.023C112.551 158.297 112.449 158.621 112.395 158.996C112.34 159.371 112.312 159.781 112.312 160.227Z" fill="#272727"/>
<g filter="url(#filter0_d_13_344)">
<circle cx="87" cy="58" r="48" fill="#FF4D2E"/>
<circle cx="87" cy="58" r="50" stroke="white" stroke-width="4"/>
</g>
<path d="M95.282 36.1241H72.0769C68.2419 36.1241 65.1243 39.2417 65.1243 43.0767C65.1243 46.9118 68.2419 50.0293 72.0769 50.0293H91.5442C96.9116 50.0293 101.278 54.3955 101.278 59.763C101.278 65.1304 96.9116 69.4966 91.5442 69.4966H78.0256C77.0043 67.4946 75.7395 65.6264 74.2601 63.9345H91.5442C93.8442 63.9345 95.7158 62.0629 95.7158 59.763C95.7158 57.463 93.8442 55.5914 91.5442 55.5914H72.0769C65.1772 55.5914 59.5623 49.9765 59.5623 43.0767C59.5623 36.1769 65.1772 30.562 72.0769 30.562H98.7555C97.3908 32.2786 96.2255 34.1446 95.282 36.1241ZM67.9054 86.1829C63.3055 86.1829 59.5623 82.4396 59.5623 77.8397C59.5623 68.9738 67.9054 63.9345 67.9054 63.9345C67.9054 63.9345 76.2485 68.9766 76.2485 77.8397C76.2485 82.4396 72.5052 86.1829 67.9054 86.1829ZM67.9054 73.6682C67.3574 73.6684 66.8148 73.7765 66.3086 73.9864C65.8024 74.1962 65.3424 74.5038 64.9551 74.8914C64.5677 75.279 64.2605 75.7391 64.0509 76.2455C63.8414 76.7518 63.7336 77.2945 63.7338 77.8425C63.734 78.3905 63.8421 78.9331 64.052 79.4393C64.2619 79.9455 64.5694 80.4055 64.957 80.7928C65.3447 81.1802 65.8048 81.4874 66.3111 81.697C66.8175 81.9065 67.3602 82.0143 67.9082 82.0141C69.0149 82.0137 70.0762 81.5737 70.8585 80.7909C71.6408 80.008 72.0801 78.9465 72.0797 77.8397C72.0794 76.733 71.6394 75.6717 70.8565 74.8894C70.0737 74.1071 69.0121 73.6678 67.9054 73.6682Z" fill="white"/>
<path d="M106.84 52.8105C102.24 52.8105 98.4966 49.0673 98.4966 44.4674C98.4966 35.6015 106.84 30.5622 106.84 30.5622C106.84 30.5622 115.183 35.6042 115.183 44.4674C115.183 49.0673 111.44 52.8105 106.84 52.8105ZM106.84 40.2959C106.292 40.296 105.749 40.4042 105.243 40.614C104.737 40.8239 104.277 41.1314 103.889 41.5191C103.502 41.9067 103.195 42.3668 102.985 42.8732C102.776 43.3795 102.668 43.9222 102.668 44.4702C102.668 45.0182 102.776 45.5608 102.986 46.067C103.196 46.5732 103.504 47.0332 103.891 47.4205C104.279 47.8079 104.739 48.1151 105.245 48.3246C105.752 48.5342 106.294 48.6419 106.842 48.6418C107.949 48.6414 109.01 48.2014 109.793 47.4186C110.575 46.6357 111.014 45.5742 111.014 44.4674C111.014 43.3607 110.574 42.2994 109.791 41.5171C109.008 40.7348 107.946 40.2955 106.84 40.2959Z" fill="white"/>
<defs>
<filter id="filter0_d_13_344" x="25" y="0" width="124" height="124" filterUnits="userSpaceOnUse" color-interpolation-filters="sRGB">
<feFlood flood-opacity="0" result="BackgroundImageFix"/>
<feColorMatrix in="SourceAlpha" type="matrix" values="0 0 0 0 0 0 0 0 0 0 0 0 0 0 0 0 0 0 127 0" result="hardAlpha"/>
<feMorphology radius="2" operator="dilate" in="SourceAlpha" result="effect1_dropShadow_13_344"/>
<feOffset dy="4"/>
<feGaussianBlur stdDeviation="4"/>
<feComposite in2="hardAlpha" operator="out"/>
<feColorMatrix type="matrix" values="0 0 0 0 0 0 0 0 0 0 0 0 0 0 0 0 0 0 0.3 0"/>
<feBlend mode="normal" in2="BackgroundImageFix" result="effect1_dropShadow_13_344"/>
<feBlend mode="normal" in="SourceGraphic" in2="effect1_dropShadow_13_344" result="shape"/>
</filter>
</defs>
</svg>
