<svg width="124" height="160" viewBox="0 0 124 160" fill="none" xmlns="http://www.w3.org/2000/svg">
<path d="M46.1562 135.938V153H42.0547V135.938H46.1562ZM52.7422 143.027V153H48.793V140.32H52.4961L52.7422 143.027ZM52.2734 146.227L51.3477 146.25C51.3477 145.281 51.4648 144.418 51.6992 143.66C51.9336 142.895 52.2656 142.246 52.6953 141.715C53.125 141.184 53.6367 140.781 54.2305 140.508C54.832 140.227 55.5 140.086 56.2344 140.086C56.8203 140.086 57.3555 140.172 57.8398 140.344C58.332 140.516 58.7539 140.793 59.1055 141.176C59.4648 141.559 59.7383 142.066 59.9258 142.699C60.1211 143.324 60.2188 144.098 60.2188 145.02V153H56.2461V145.008C56.2461 144.5 56.1758 144.113 56.0352 143.848C55.8945 143.574 55.6914 143.387 55.4258 143.285C55.1602 143.184 54.8359 143.133 54.4531 143.133C54.0469 143.133 53.7031 143.211 53.4219 143.367C53.1406 143.523 52.9141 143.742 52.7422 144.023C52.5781 144.297 52.457 144.621 52.3789 144.996C52.3086 145.371 52.2734 145.781 52.2734 146.227ZM67.25 153H63.2773V139.289C63.2773 138.305 63.4766 137.477 63.875 136.805C64.2734 136.133 64.8359 135.625 65.5625 135.281C66.2891 134.93 67.1484 134.754 68.1406 134.754C68.4844 134.754 68.8086 134.777 69.1133 134.824C69.418 134.871 69.7148 134.93 70.0039 135L70.0156 137.906C69.875 137.867 69.7305 137.84 69.582 137.824C69.4336 137.809 69.25 137.801 69.0312 137.801C68.6484 137.801 68.3242 137.859 68.0586 137.977C67.793 138.086 67.5898 138.254 67.4492 138.48C67.3164 138.699 67.25 138.969 67.25 139.289V153ZM69.7109 140.32V143.062H61.4492V140.32H69.7109ZM70.6367 146.789V146.543C70.6367 145.613 70.7695 144.758 71.0352 143.977C71.3008 143.188 71.6914 142.504 72.207 141.926C72.7227 141.348 73.3594 140.898 74.1172 140.578C74.875 140.25 75.75 140.086 76.7422 140.086C77.7422 140.086 78.6211 140.25 79.3789 140.578C80.1445 140.898 80.7852 141.348 81.3008 141.926C81.8164 142.504 82.207 143.188 82.4727 143.977C82.7383 144.758 82.8711 145.613 82.8711 146.543V146.789C82.8711 147.711 82.7383 148.566 82.4727 149.355C82.207 150.137 81.8164 150.82 81.3008 151.406C80.7852 151.984 80.1484 152.434 79.3906 152.754C78.6328 153.074 77.7578 153.234 76.7656 153.234C75.7734 153.234 74.8945 153.074 74.1289 152.754C73.3633 152.434 72.7227 151.984 72.207 151.406C71.6914 150.82 71.3008 150.137 71.0352 149.355C70.7695 148.566 70.6367 147.711 70.6367 146.789ZM74.5859 146.543V146.789C74.5859 147.266 74.6211 147.711 74.6914 148.125C74.7617 148.539 74.8789 148.902 75.043 149.215C75.207 149.52 75.4297 149.758 75.7109 149.93C75.9922 150.102 76.3438 150.188 76.7656 150.188C77.1797 150.188 77.5234 150.102 77.7969 149.93C78.0781 149.758 78.3008 149.52 78.4648 149.215C78.6289 148.902 78.7461 148.539 78.8164 148.125C78.8867 147.711 78.9219 147.266 78.9219 146.789V146.543C78.9219 146.082 78.8867 145.648 78.8164 145.242C78.7461 144.828 78.6289 144.465 78.4648 144.152C78.3008 143.832 78.0781 143.582 77.7969 143.402C77.5156 143.223 77.1641 143.133 76.7422 143.133C76.3281 143.133 75.9805 143.223 75.6992 143.402C75.4258 143.582 75.207 143.832 75.043 144.152C74.8789 144.465 74.7617 144.828 74.6914 145.242C74.6211 145.648 74.5859 146.082 74.5859 146.543Z" fill="#272727"/>
<g filter="url(#filter0_d_12_134)">
<circle cx="62" cy="58" r="48" fill="#FF4D2E"/>
<circle cx="62" cy="58" r="50" stroke="white" stroke-width="4"/>
</g>
<path fill-rule="evenodd" clip-rule="evenodd" d="M62 41.5C66.9706 41.5 71 37.4706 71 32.5C71 27.5294 66.9706 23.5 62 23.5C57.0294 23.5 53 27.5294 53 32.5C53 37.4706 57.0294 41.5 62 41.5ZM62 50.5C57.0294 50.5 53 54.5294 53 59.5V83.5C53 88.4706 57.0294 92.5 62 92.5C66.9706 92.5 71 88.4706 71 83.5V59.5C71 54.5294 66.9706 50.5 62 50.5Z" fill="white"/>
<defs>
<filter id="filter0_d_12_134" x="0" y="0" width="124" height="124" filterUnits="userSpaceOnUse" color-interpolation-filters="sRGB">
<feFlood flood-opacity="0" result="BackgroundImageFix"/>
<feColorMatrix in="SourceAlpha" type="matrix" values="0 0 0 0 0 0 0 0 0 0 0 0 0 0 0 0 0 0 127 0" result="hardAlpha"/>
<feMorphology radius="2" operator="dilate" in="SourceAlpha" result="effect1_dropShadow_12_134"/>
<feOffset dy="4"/>
<feGaussianBlur stdDeviation="4"/>
<feComposite in2="hardAlpha" operator="out"/>
<feColorMatrix type="matrix" values="0 0 0 0 0 0 0 0 0 0 0 0 0 0 0 0 0 0 0.3 0"/>
<feBlend mode="normal" in2="BackgroundImageFix" result="effect1_dropShadow_12_134"/>
<feBlend mode="normal" in="SourceGraphic" in2="effect1_dropShadow_12_134" result="shape"/>
</filter>
</defs>
</svg>
