<svg width="538" height="98" viewBox="0 0 538 98" fill="none" xmlns="http://www.w3.org/2000/svg">
<g filter="url(#filter0_d_13_448)">
<rect x="9" y="7" width="520" height="80" rx="8" fill="#FF4D2E"/>
</g>
<path d="M140.047 54.3438V58H128.594V54.3438H140.047ZM130.109 35.25V58H125.422V35.25H130.109ZM150.234 58.3125C148.922 58.3125 147.745 58.1042 146.703 57.6875C145.661 57.2604 144.776 56.6719 144.047 55.9219C143.328 55.1719 142.776 54.3021 142.391 53.3125C142.005 52.3125 141.812 51.25 141.812 50.125V49.5C141.812 48.2188 141.995 47.0469 142.359 45.9844C142.724 44.9219 143.245 44 143.922 43.2188C144.609 42.4375 145.443 41.8385 146.422 41.4219C147.401 40.9948 148.505 40.7812 149.734 40.7812C150.932 40.7812 151.995 40.9792 152.922 41.375C153.849 41.7708 154.625 42.3333 155.25 43.0625C155.885 43.7917 156.365 44.6667 156.688 45.6875C157.01 46.6979 157.172 47.8229 157.172 49.0625V50.9375H143.734V47.9375H152.75V47.5938C152.75 46.9688 152.635 46.4115 152.406 45.9219C152.188 45.4219 151.854 45.026 151.406 44.7344C150.958 44.4427 150.385 44.2969 149.688 44.2969C149.094 44.2969 148.583 44.4271 148.156 44.6875C147.729 44.9479 147.38 45.3125 147.109 45.7812C146.849 46.25 146.651 46.8021 146.516 47.4375C146.391 48.0625 146.328 48.75 146.328 49.5V50.125C146.328 50.8021 146.422 51.4271 146.609 52C146.807 52.5729 147.083 53.0677 147.438 53.4844C147.802 53.901 148.24 54.224 148.75 54.4531C149.271 54.6823 149.859 54.7969 150.516 54.7969C151.328 54.7969 152.083 54.6406 152.781 54.3281C153.49 54.0052 154.099 53.5208 154.609 52.875L156.797 55.25C156.443 55.7604 155.958 56.25 155.344 56.7188C154.74 57.1875 154.01 57.5729 153.156 57.875C152.302 58.1667 151.328 58.3125 150.234 58.3125ZM168.016 41.0938V44.2812H158.172V41.0938H168.016ZM160.609 36.9219H165.109V52.9062C165.109 53.3958 165.172 53.7708 165.297 54.0312C165.432 54.2917 165.63 54.474 165.891 54.5781C166.151 54.6719 166.479 54.7188 166.875 54.7188C167.156 54.7188 167.406 54.7083 167.625 54.6875C167.854 54.6562 168.047 54.625 168.203 54.5938L168.219 57.9062C167.833 58.0312 167.417 58.1302 166.969 58.2031C166.521 58.276 166.026 58.3125 165.484 58.3125C164.495 58.3125 163.63 58.151 162.891 57.8281C162.161 57.4948 161.599 56.9635 161.203 56.2344C160.807 55.5052 160.609 54.5469 160.609 53.3594V36.9219ZM174.938 34V36.375C174.938 37.0521 174.807 37.75 174.547 38.4688C174.297 39.1875 173.958 39.8698 173.531 40.5156C173.104 41.151 172.635 41.6927 172.125 42.1406L170.016 40.9219C170.401 40.3073 170.729 39.6406 171 38.9219C171.271 38.1927 171.406 37.349 171.406 36.3906V34H174.938ZM184.281 53.3281C184.281 53.0052 184.188 52.7135 184 52.4531C183.812 52.1927 183.464 51.9531 182.953 51.7344C182.453 51.5052 181.729 51.2969 180.781 51.1094C179.927 50.9219 179.13 50.6875 178.391 50.4062C177.661 50.1146 177.026 49.7656 176.484 49.3594C175.953 48.9531 175.536 48.474 175.234 47.9219C174.932 47.3594 174.781 46.7188 174.781 46C174.781 45.2917 174.932 44.625 175.234 44C175.547 43.375 175.99 42.8229 176.562 42.3438C177.146 41.8542 177.854 41.474 178.688 41.2031C179.531 40.9219 180.479 40.7812 181.531 40.7812C183 40.7812 184.26 41.0156 185.312 41.4844C186.375 41.9531 187.188 42.599 187.75 43.4219C188.323 44.2344 188.609 45.1615 188.609 46.2031H184.109C184.109 45.7656 184.016 45.375 183.828 45.0312C183.651 44.6771 183.37 44.401 182.984 44.2031C182.609 43.9948 182.12 43.8906 181.516 43.8906C181.016 43.8906 180.583 43.9792 180.219 44.1562C179.854 44.3229 179.573 44.5521 179.375 44.8438C179.188 45.125 179.094 45.4375 179.094 45.7812C179.094 46.0417 179.146 46.276 179.25 46.4844C179.365 46.6823 179.547 46.8646 179.797 47.0312C180.047 47.1979 180.37 47.3542 180.766 47.5C181.172 47.6354 181.672 47.7604 182.266 47.875C183.484 48.125 184.573 48.4531 185.531 48.8594C186.49 49.2552 187.25 49.7969 187.812 50.4844C188.375 51.1615 188.656 52.0521 188.656 53.1562C188.656 53.9062 188.49 54.5938 188.156 55.2188C187.823 55.8438 187.344 56.3906 186.719 56.8594C186.094 57.3177 185.344 57.6771 184.469 57.9375C183.604 58.1875 182.63 58.3125 181.547 58.3125C179.974 58.3125 178.641 58.0312 177.547 57.4688C176.464 56.9062 175.641 56.1927 175.078 55.3281C174.526 54.4531 174.25 53.5573 174.25 52.6406H178.516C178.536 53.2552 178.693 53.75 178.984 54.125C179.286 54.5 179.667 54.7708 180.125 54.9375C180.594 55.1042 181.099 55.1875 181.641 55.1875C182.224 55.1875 182.708 55.1094 183.094 54.9531C183.479 54.7865 183.771 54.5677 183.969 54.2969C184.177 54.0156 184.281 53.6927 184.281 53.3281ZM217.859 46.1094V55.125C217.505 55.5521 216.958 56.0156 216.219 56.5156C215.479 57.0052 214.526 57.4271 213.359 57.7812C212.193 58.1354 210.781 58.3125 209.125 58.3125C207.656 58.3125 206.318 58.0729 205.109 57.5938C203.901 57.1042 202.859 56.3906 201.984 55.4531C201.12 54.5156 200.453 53.3698 199.984 52.0156C199.516 50.651 199.281 49.0938 199.281 47.3438V45.9219C199.281 44.1719 199.505 42.6146 199.953 41.25C200.411 39.8854 201.062 38.7344 201.906 37.7969C202.75 36.8594 203.755 36.1458 204.922 35.6562C206.089 35.1667 207.385 34.9219 208.812 34.9219C210.792 34.9219 212.417 35.2448 213.688 35.8906C214.958 36.526 215.927 37.4115 216.594 38.5469C217.271 39.6719 217.688 40.9635 217.844 42.4219H213.297C213.182 41.651 212.964 40.9792 212.641 40.4062C212.318 39.8333 211.854 39.3854 211.25 39.0625C210.656 38.7396 209.885 38.5781 208.938 38.5781C208.156 38.5781 207.458 38.7396 206.844 39.0625C206.24 39.375 205.729 39.8385 205.312 40.4531C204.896 41.0677 204.578 41.8281 204.359 42.7344C204.141 43.6406 204.031 44.6927 204.031 45.8906V47.3438C204.031 48.5312 204.146 49.5833 204.375 50.5C204.604 51.4062 204.943 52.1719 205.391 52.7969C205.849 53.4115 206.411 53.875 207.078 54.1875C207.745 54.5 208.521 54.6562 209.406 54.6562C210.146 54.6562 210.76 54.5938 211.25 54.4688C211.75 54.3438 212.151 54.1927 212.453 54.0156C212.766 53.8281 213.005 53.651 213.172 53.4844V49.4531H208.891V46.1094H217.859ZM220.641 49.7188V49.3906C220.641 48.151 220.818 47.0104 221.172 45.9688C221.526 44.9167 222.042 44.0052 222.719 43.2344C223.396 42.4635 224.229 41.8646 225.219 41.4375C226.208 41 227.344 40.7812 228.625 40.7812C229.906 40.7812 231.047 41 232.047 41.4375C233.047 41.8646 233.885 42.4635 234.562 43.2344C235.25 44.0052 235.771 44.9167 236.125 45.9688C236.479 47.0104 236.656 48.151 236.656 49.3906V49.7188C236.656 50.9479 236.479 52.0885 236.125 53.1406C235.771 54.1823 235.25 55.0938 234.562 55.875C233.885 56.6458 233.052 57.2448 232.062 57.6719C231.073 58.099 229.938 58.3125 228.656 58.3125C227.375 58.3125 226.234 58.099 225.234 57.6719C224.245 57.2448 223.406 56.6458 222.719 55.875C222.042 55.0938 221.526 54.1823 221.172 53.1406C220.818 52.0885 220.641 50.9479 220.641 49.7188ZM225.141 49.3906V49.7188C225.141 50.4271 225.203 51.0885 225.328 51.7031C225.453 52.3177 225.651 52.8594 225.922 53.3281C226.203 53.7865 226.568 54.1458 227.016 54.4062C227.464 54.6667 228.01 54.7969 228.656 54.7969C229.281 54.7969 229.818 54.6667 230.266 54.4062C230.714 54.1458 231.073 53.7865 231.344 53.3281C231.615 52.8594 231.812 52.3177 231.938 51.7031C232.073 51.0885 232.141 50.4271 232.141 49.7188V49.3906C232.141 48.7031 232.073 48.0573 231.938 47.4531C231.812 46.8385 231.609 46.2969 231.328 45.8281C231.057 45.349 230.698 44.974 230.25 44.7031C229.802 44.4323 229.26 44.2969 228.625 44.2969C227.99 44.2969 227.448 44.4323 227 44.7031C226.562 44.974 226.203 45.349 225.922 45.8281C225.651 46.2969 225.453 46.8385 225.328 47.4531C225.203 48.0573 225.141 48.7031 225.141 49.3906ZM256.578 48.0156H250.734L250.703 44.7969H255.609C256.474 44.7969 257.182 44.6875 257.734 44.4688C258.286 44.2396 258.698 43.9115 258.969 43.4844C259.25 43.0469 259.391 42.5156 259.391 41.8906C259.391 41.1823 259.255 40.6094 258.984 40.1719C258.724 39.7344 258.312 39.4167 257.75 39.2188C257.198 39.0208 256.484 38.9219 255.609 38.9219H252.359V58H247.672V35.25H255.609C256.932 35.25 258.115 35.375 259.156 35.625C260.208 35.875 261.099 36.2552 261.828 36.7656C262.557 37.276 263.115 37.9219 263.5 38.7031C263.885 39.474 264.078 40.3906 264.078 41.4531C264.078 42.3906 263.865 43.2552 263.438 44.0469C263.021 44.8385 262.359 45.4844 261.453 45.9844C260.557 46.4844 259.385 46.7604 257.938 46.8125L256.578 48.0156ZM256.375 58H249.453L251.281 54.3438H256.375C257.198 54.3438 257.87 54.2135 258.391 53.9531C258.911 53.6823 259.297 53.3177 259.547 52.8594C259.797 52.401 259.922 51.875 259.922 51.2812C259.922 50.6146 259.807 50.0365 259.578 49.5469C259.359 49.0573 259.005 48.6823 258.516 48.4219C258.026 48.151 257.38 48.0156 256.578 48.0156H252.062L252.094 44.7969H257.719L258.797 46.0625C260.182 46.0417 261.297 46.2865 262.141 46.7969C262.995 47.2969 263.615 47.9479 264 48.75C264.396 49.5521 264.594 50.4115 264.594 51.3281C264.594 52.7865 264.276 54.0156 263.641 55.0156C263.005 56.0052 262.073 56.75 260.844 57.25C259.625 57.75 258.135 58 256.375 58ZM276.953 54.1875V46.6562C276.953 46.1146 276.865 45.651 276.688 45.2656C276.51 44.8698 276.234 44.5625 275.859 44.3438C275.495 44.125 275.021 44.0156 274.438 44.0156C273.938 44.0156 273.505 44.1042 273.141 44.2812C272.776 44.4479 272.495 44.6927 272.297 45.0156C272.099 45.3281 272 45.6979 272 46.125H267.5C267.5 45.4062 267.667 44.724 268 44.0781C268.333 43.4323 268.818 42.8646 269.453 42.375C270.089 41.875 270.844 41.4844 271.719 41.2031C272.604 40.9219 273.594 40.7812 274.688 40.7812C276 40.7812 277.167 41 278.188 41.4375C279.208 41.875 280.01 42.5312 280.594 43.4062C281.188 44.2812 281.484 45.375 281.484 46.6875V53.9219C281.484 54.849 281.542 55.6094 281.656 56.2031C281.771 56.7865 281.938 57.2969 282.156 57.7344V58H277.609C277.391 57.5417 277.224 56.9688 277.109 56.2812C277.005 55.5833 276.953 54.8854 276.953 54.1875ZM277.547 47.7031L277.578 50.25H275.062C274.469 50.25 273.953 50.3177 273.516 50.4531C273.078 50.5885 272.719 50.7812 272.438 51.0312C272.156 51.2708 271.948 51.5521 271.812 51.875C271.688 52.1979 271.625 52.5521 271.625 52.9375C271.625 53.3229 271.714 53.6719 271.891 53.9844C272.068 54.2865 272.323 54.526 272.656 54.7031C272.99 54.8698 273.38 54.9531 273.828 54.9531C274.505 54.9531 275.094 54.8177 275.594 54.5469C276.094 54.276 276.479 53.9427 276.75 53.5469C277.031 53.151 277.177 52.776 277.188 52.4219L278.375 54.3281C278.208 54.7552 277.979 55.1979 277.688 55.6562C277.406 56.1146 277.047 56.5469 276.609 56.9531C276.172 57.349 275.646 57.6771 275.031 57.9375C274.417 58.1875 273.688 58.3125 272.844 58.3125C271.771 58.3125 270.797 58.099 269.922 57.6719C269.057 57.2344 268.37 56.6354 267.859 55.875C267.359 55.1042 267.109 54.2292 267.109 53.25C267.109 52.3646 267.276 51.5781 267.609 50.8906C267.943 50.2031 268.432 49.625 269.078 49.1562C269.734 48.6771 270.552 48.3177 271.531 48.0781C272.51 47.8281 273.646 47.7031 274.938 47.7031H277.547ZM289.453 44.7812V58H284.953V41.0938H289.188L289.453 44.7812ZM294.547 40.9844L294.469 45.1562C294.25 45.125 293.984 45.099 293.672 45.0781C293.37 45.0469 293.094 45.0312 292.844 45.0312C292.208 45.0312 291.656 45.1146 291.188 45.2812C290.729 45.4375 290.344 45.6719 290.031 45.9844C289.729 46.2969 289.5 46.6771 289.344 47.125C289.198 47.5729 289.115 48.0833 289.094 48.6562L288.188 48.375C288.188 47.2812 288.297 46.276 288.516 45.3594C288.734 44.4323 289.052 43.625 289.469 42.9375C289.896 42.25 290.417 41.7188 291.031 41.3438C291.646 40.9688 292.349 40.7812 293.141 40.7812C293.391 40.7812 293.646 40.8021 293.906 40.8438C294.167 40.875 294.38 40.9219 294.547 40.9844ZM320.094 44.5156V48.1719H308.219V44.5156H320.094ZM309.609 35.25V58H304.922V35.25H309.609ZM323.438 35.25V58H318.766V35.25H323.438ZM326.516 49.7188V49.3906C326.516 48.151 326.693 47.0104 327.047 45.9688C327.401 44.9167 327.917 44.0052 328.594 43.2344C329.271 42.4635 330.104 41.8646 331.094 41.4375C332.083 41 333.219 40.7812 334.5 40.7812C335.781 40.7812 336.922 41 337.922 41.4375C338.922 41.8646 339.76 42.4635 340.438 43.2344C341.125 44.0052 341.646 44.9167 342 45.9688C342.354 47.0104 342.531 48.151 342.531 49.3906V49.7188C342.531 50.9479 342.354 52.0885 342 53.1406C341.646 54.1823 341.125 55.0938 340.438 55.875C339.76 56.6458 338.927 57.2448 337.938 57.6719C336.948 58.099 335.812 58.3125 334.531 58.3125C333.25 58.3125 332.109 58.099 331.109 57.6719C330.12 57.2448 329.281 56.6458 328.594 55.875C327.917 55.0938 327.401 54.1823 327.047 53.1406C326.693 52.0885 326.516 50.9479 326.516 49.7188ZM331.016 49.3906V49.7188C331.016 50.4271 331.078 51.0885 331.203 51.7031C331.328 52.3177 331.526 52.8594 331.797 53.3281C332.078 53.7865 332.443 54.1458 332.891 54.4062C333.339 54.6667 333.885 54.7969 334.531 54.7969C335.156 54.7969 335.693 54.6667 336.141 54.4062C336.589 54.1458 336.948 53.7865 337.219 53.3281C337.49 52.8594 337.688 52.3177 337.812 51.7031C337.948 51.0885 338.016 50.4271 338.016 49.7188V49.3906C338.016 48.7031 337.948 48.0573 337.812 47.4531C337.688 46.8385 337.484 46.2969 337.203 45.8281C336.932 45.349 336.573 44.974 336.125 44.7031C335.677 44.4323 335.135 44.2969 334.5 44.2969C333.865 44.2969 333.323 44.4323 332.875 44.7031C332.438 44.974 332.078 45.349 331.797 45.8281C331.526 46.2969 331.328 46.8385 331.203 47.4531C331.078 48.0573 331.016 48.7031 331.016 49.3906ZM349.797 44.3438V64.5H345.297V41.0938H349.469L349.797 44.3438ZM360.5 49.3594V49.6875C360.5 50.9167 360.354 52.0573 360.062 53.1094C359.781 54.1615 359.365 55.0781 358.812 55.8594C358.26 56.6302 357.573 57.2344 356.75 57.6719C355.938 58.099 355 58.3125 353.938 58.3125C352.906 58.3125 352.01 58.1042 351.25 57.6875C350.49 57.2708 349.849 56.6875 349.328 55.9375C348.818 55.1771 348.406 54.2969 348.094 53.2969C347.781 52.2969 347.542 51.224 347.375 50.0781V49.2188C347.542 47.9896 347.781 46.8646 348.094 45.8438C348.406 44.8125 348.818 43.9219 349.328 43.1719C349.849 42.4115 350.484 41.8229 351.234 41.4062C351.995 40.9896 352.885 40.7812 353.906 40.7812C354.979 40.7812 355.922 40.9844 356.734 41.3906C357.557 41.7969 358.245 42.3802 358.797 43.1406C359.359 43.901 359.781 44.8073 360.062 45.8594C360.354 46.9115 360.5 48.0781 360.5 49.3594ZM355.984 49.6875V49.3594C355.984 48.6406 355.922 47.9792 355.797 47.375C355.682 46.7604 355.495 46.224 355.234 45.7656C354.984 45.3073 354.651 44.9531 354.234 44.7031C353.828 44.4427 353.333 44.3125 352.75 44.3125C352.135 44.3125 351.609 44.4115 351.172 44.6094C350.745 44.8073 350.396 45.0938 350.125 45.4688C349.854 45.8438 349.651 46.2917 349.516 46.8125C349.38 47.3333 349.297 47.9219 349.266 48.5781V50.75C349.318 51.5208 349.464 52.2135 349.703 52.8281C349.943 53.4323 350.312 53.9115 350.812 54.2656C351.312 54.6198 351.969 54.7969 352.781 54.7969C353.375 54.7969 353.875 54.6667 354.281 54.4062C354.688 54.1354 355.016 53.7656 355.266 53.2969C355.526 52.8281 355.708 52.2865 355.812 51.6719C355.927 51.0573 355.984 50.3958 355.984 49.6875ZM367.797 44.3438V64.5H363.297V41.0938H367.469L367.797 44.3438ZM378.5 49.3594V49.6875C378.5 50.9167 378.354 52.0573 378.062 53.1094C377.781 54.1615 377.365 55.0781 376.812 55.8594C376.26 56.6302 375.573 57.2344 374.75 57.6719C373.938 58.099 373 58.3125 371.938 58.3125C370.906 58.3125 370.01 58.1042 369.25 57.6875C368.49 57.2708 367.849 56.6875 367.328 55.9375C366.818 55.1771 366.406 54.2969 366.094 53.2969C365.781 52.2969 365.542 51.224 365.375 50.0781V49.2188C365.542 47.9896 365.781 46.8646 366.094 45.8438C366.406 44.8125 366.818 43.9219 367.328 43.1719C367.849 42.4115 368.484 41.8229 369.234 41.4062C369.995 40.9896 370.885 40.7812 371.906 40.7812C372.979 40.7812 373.922 40.9844 374.734 41.3906C375.557 41.7969 376.245 42.3802 376.797 43.1406C377.359 43.901 377.781 44.8073 378.062 45.8594C378.354 46.9115 378.5 48.0781 378.5 49.3594ZM373.984 49.6875V49.3594C373.984 48.6406 373.922 47.9792 373.797 47.375C373.682 46.7604 373.495 46.224 373.234 45.7656C372.984 45.3073 372.651 44.9531 372.234 44.7031C371.828 44.4427 371.333 44.3125 370.75 44.3125C370.135 44.3125 369.609 44.4115 369.172 44.6094C368.745 44.8073 368.396 45.0938 368.125 45.4688C367.854 45.8438 367.651 46.2917 367.516 46.8125C367.38 47.3333 367.297 47.9219 367.266 48.5781V50.75C367.318 51.5208 367.464 52.2135 367.703 52.8281C367.943 53.4323 368.312 53.9115 368.812 54.2656C369.312 54.6198 369.969 54.7969 370.781 54.7969C371.375 54.7969 371.875 54.6667 372.281 54.4062C372.688 54.1354 373.016 53.7656 373.266 53.2969C373.526 52.8281 373.708 52.2865 373.812 51.6719C373.927 51.0573 373.984 50.3958 373.984 49.6875ZM386.047 41.0938V58H381.531V41.0938H386.047ZM381.25 36.6875C381.25 36.0312 381.479 35.4896 381.938 35.0625C382.396 34.6354 383.01 34.4219 383.781 34.4219C384.542 34.4219 385.151 34.6354 385.609 35.0625C386.078 35.4896 386.312 36.0312 386.312 36.6875C386.312 37.3438 386.078 37.8854 385.609 38.3125C385.151 38.7396 384.542 38.9531 383.781 38.9531C383.01 38.9531 382.396 38.7396 381.938 38.3125C381.479 37.8854 381.25 37.3438 381.25 36.6875ZM394.172 44.7031V58H389.672V41.0938H393.891L394.172 44.7031ZM393.516 48.9531H392.297C392.297 47.7031 392.458 46.5781 392.781 45.5781C393.104 44.5677 393.557 43.7083 394.141 43C394.724 42.2812 395.417 41.7344 396.219 41.3594C397.031 40.974 397.938 40.7812 398.938 40.7812C399.729 40.7812 400.453 40.8958 401.109 41.125C401.766 41.3542 402.328 41.7188 402.797 42.2188C403.276 42.7188 403.641 43.3802 403.891 44.2031C404.151 45.026 404.281 46.0312 404.281 47.2188V58H399.75V47.2031C399.75 46.4531 399.646 45.8698 399.438 45.4531C399.229 45.0365 398.922 44.7448 398.516 44.5781C398.12 44.401 397.63 44.3125 397.047 44.3125C396.443 44.3125 395.917 44.4323 395.469 44.6719C395.031 44.9115 394.667 45.2448 394.375 45.6719C394.094 46.0885 393.88 46.5781 393.734 47.1406C393.589 47.7031 393.516 48.3073 393.516 48.9531ZM412.781 35.25L412.266 51.0469H408.516L407.984 35.25H412.781ZM407.859 55.9375C407.859 55.2708 408.089 54.7188 408.547 54.2812C409.016 53.8333 409.63 53.6094 410.391 53.6094C411.161 53.6094 411.776 53.8333 412.234 54.2812C412.693 54.7188 412.922 55.2708 412.922 55.9375C412.922 56.5833 412.693 57.1302 412.234 57.5781C411.776 58.026 411.161 58.25 410.391 58.25C409.63 58.25 409.016 58.026 408.547 57.5781C408.089 57.1302 407.859 56.5833 407.859 55.9375Z" fill="white"/>
<defs>
<filter id="filter0_d_13_448" x="0" y="0" width="538" height="98" filterUnits="userSpaceOnUse" color-interpolation-filters="sRGB">
<feFlood flood-opacity="0" result="BackgroundImageFix"/>
<feColorMatrix in="SourceAlpha" type="matrix" values="0 0 0 0 0 0 0 0 0 0 0 0 0 0 0 0 0 0 127 0" result="hardAlpha"/>
<feMorphology radius="5" operator="dilate" in="SourceAlpha" result="effect1_dropShadow_13_448"/>
<feOffset dy="2"/>
<feGaussianBlur stdDeviation="2"/>
<feComposite in2="hardAlpha" operator="out"/>
<feColorMatrix type="matrix" values="0 0 0 0 0 0 0 0 0 0 0 0 0 0 0 0 0 0 0.25 0"/>
<feBlend mode="normal" in2="BackgroundImageFix" result="effect1_dropShadow_13_448"/>
<feBlend mode="normal" in="SourceGraphic" in2="effect1_dropShadow_13_448" result="shape"/>
</filter>
</defs>
</svg>
