<svg width="517" height="34" viewBox="0 0 517 34" fill="none" xmlns="http://www.w3.org/2000/svg">
<path d="M17.8978 24.8918C17.8978 24.3385 17.8127 23.8419 17.6425 23.4021C17.4864 22.9481 17.1885 22.5367 16.7486 22.1678C16.3088 21.7847 15.6917 21.4088 14.8972 21.0399C14.1027 20.671 13.0741 20.2879 11.8114 19.8907C10.4068 19.4367 9.07317 18.9259 7.81048 18.3584C6.56197 17.7909 5.45534 17.1312 4.49059 16.3793C3.54002 15.6131 2.78808 14.7264 2.23477 13.7191C1.69564 12.7118 1.42607 11.5413 1.42607 10.2077C1.42607 8.9166 1.70983 7.74613 2.27733 6.69625C2.84483 5.63218 3.63933 4.72418 4.66084 3.97224C5.68234 3.20611 6.88829 2.61732 8.27867 2.20588C9.68324 1.79444 11.2226 1.58872 12.8967 1.58872C15.1809 1.58872 17.1743 2.00016 18.8768 2.82304C20.5793 3.64592 21.8987 4.77383 22.8351 6.20678C23.7857 7.63972 24.261 9.27839 24.261 11.1228H17.9191C17.9191 10.2148 17.7276 9.42026 17.3445 8.73926C16.9756 8.04407 16.4081 7.49785 15.642 7.10059C14.8901 6.70334 13.9395 6.50472 12.7903 6.50472C11.6837 6.50472 10.7615 6.67497 10.0237 7.01547C9.28599 7.34178 8.73267 7.78869 8.36379 8.35619C7.99492 8.90951 7.81048 9.53376 7.81048 10.229C7.81048 10.7539 7.93817 11.2292 8.19354 11.6548C8.46311 12.0804 8.86036 12.4777 9.3853 12.8466C9.91024 13.2154 10.5558 13.563 11.3219 13.8893C12.088 14.2157 12.9748 14.5349 13.9821 14.847C15.6704 15.3578 17.153 15.9324 18.4299 16.5708C19.7209 17.2092 20.7992 17.9257 21.6646 18.7202C22.5301 19.5147 23.1827 20.4156 23.6225 21.4229C24.0623 22.4303 24.2822 23.5724 24.2822 24.8492C24.2822 26.1971 24.0198 27.403 23.4948 28.4671C22.9699 29.5311 22.2109 30.4321 21.2177 31.1698C20.2246 31.9076 19.0399 32.468 17.6637 32.851C16.2876 33.2341 14.7482 33.4256 13.0457 33.4256C11.5134 33.4256 10.0025 33.227 8.51276 32.8297C7.02307 32.4183 5.66816 31.8012 4.44803 30.9783C3.24208 30.1554 2.27733 29.1055 1.55376 27.8286C0.830196 26.5518 0.468413 25.0408 0.468413 23.2957H6.8741C6.8741 24.2605 7.02307 25.0762 7.32101 25.7431C7.61895 26.4099 8.03748 26.949 8.57661 27.3604C9.12992 27.7719 9.78255 28.0698 10.5345 28.2543C11.3006 28.4387 12.1377 28.5309 13.0457 28.5309C14.1523 28.5309 15.0603 28.3749 15.7697 28.0627C16.4933 27.7506 17.0253 27.3179 17.3658 26.7646C17.7205 26.2112 17.8978 25.587 17.8978 24.8918ZM40.6689 27.8074V17.5497C40.6689 16.812 40.5483 16.1806 40.3071 15.6557C40.0659 15.1166 39.6899 14.698 39.1792 14.4001C38.6826 14.1022 38.0371 13.9532 37.2426 13.9532C36.5616 13.9532 35.9728 14.0738 35.4762 14.315C34.9797 14.542 34.5966 14.8754 34.327 15.3152C34.0575 15.7408 33.9227 16.2445 33.9227 16.8262H27.7937C27.7937 15.8472 28.0207 14.9179 28.4747 14.0383C28.9287 13.1587 29.5884 12.3855 30.4538 11.7186C31.3193 11.0376 32.3479 10.5056 33.5396 10.1225C34.7456 9.73948 36.0934 9.54795 37.5831 9.54795C39.3707 9.54795 40.9597 9.84589 42.3501 10.4418C43.7405 11.0376 44.8329 11.9315 45.6274 13.1232C46.4361 14.315 46.8405 15.8047 46.8405 17.5923V27.4456C46.8405 28.7083 46.9185 29.744 47.0746 30.5526C47.2306 31.3471 47.4576 32.0423 47.7556 32.6382V33H41.5627C41.2648 32.3757 41.0378 31.5954 40.8817 30.6591C40.7398 29.7085 40.6689 28.7579 40.6689 27.8074ZM41.4776 18.9756L41.5201 22.4444H38.0938C37.2852 22.4444 36.5829 22.5367 35.987 22.7211C35.3911 22.9055 34.9016 23.168 34.5186 23.5085C34.1355 23.8348 33.8518 24.2179 33.6673 24.6577C33.4971 25.0975 33.4119 25.5799 33.4119 26.1048C33.4119 26.6298 33.5325 27.1051 33.7737 27.5307C34.0149 27.9421 34.3625 28.2684 34.8165 28.5096C35.2705 28.7366 35.8026 28.8501 36.4126 28.8501C37.3348 28.8501 38.1364 28.6657 38.8174 28.2968C39.4984 27.9279 40.0234 27.4739 40.3922 26.9348C40.7753 26.3957 40.9739 25.8849 40.9881 25.4026L42.6055 27.9989C42.3785 28.5806 42.0664 29.1835 41.6691 29.8078C41.286 30.4321 40.7966 31.0208 40.2007 31.5741C39.6048 32.1133 38.8883 32.5602 38.0513 32.9149C37.2142 33.2554 36.2211 33.4256 35.0719 33.4256C33.6106 33.4256 32.284 33.1348 31.0923 32.5531C29.9147 31.9572 28.9783 31.1414 28.2831 30.1057C27.6021 29.0559 27.2616 27.8641 27.2616 26.5305C27.2616 25.3245 27.4886 24.2534 27.9426 23.317C28.3966 22.3806 29.0635 21.5932 29.9431 20.9548C30.8369 20.3021 31.9506 19.8127 33.2843 19.4863C34.6179 19.1458 36.1643 18.9756 37.9236 18.9756H41.4776ZM57.5663 14.8896V33H51.4373V9.97358H57.1832L57.5663 14.8896ZM56.6725 20.6781H55.0125C55.0125 18.9756 55.2324 17.4433 55.6722 16.0813C56.1121 14.7051 56.7292 13.5347 57.5237 12.5699C58.3182 11.591 59.2617 10.8461 60.3541 10.3354C61.4608 9.81042 62.6951 9.54795 64.0571 9.54795C65.1353 9.54795 66.1214 9.70401 67.0152 10.0161C67.909 10.3283 68.6751 10.8248 69.3136 11.5058C69.9662 12.1868 70.4628 13.0877 70.8033 14.2086C71.158 15.3294 71.3353 16.6985 71.3353 18.3159V33H65.1637V18.2946C65.1637 17.2731 65.0218 16.4786 64.7381 15.9111C64.4543 15.3436 64.0358 14.9463 63.4825 14.7193C62.9434 14.4781 62.2766 14.3575 61.482 14.3575C60.6592 14.3575 59.9427 14.5207 59.3326 14.847C58.7368 15.1733 58.2402 15.6273 57.8429 16.209C57.4599 16.7765 57.169 17.4433 56.9704 18.2095C56.7718 18.9756 56.6725 19.7985 56.6725 20.6781ZM87.275 9.97358V14.315H73.8678V9.97358H87.275ZM77.1877 4.29146H83.3167V26.0623C83.3167 26.7291 83.4018 27.2398 83.5721 27.5945C83.7565 27.9492 84.0261 28.1975 84.3808 28.3394C84.7355 28.4671 85.1824 28.5309 85.7215 28.5309C86.1046 28.5309 86.4451 28.5167 86.743 28.4884C87.0551 28.4458 87.3176 28.4032 87.5304 28.3607L87.5517 32.8723C87.0268 33.0426 86.4593 33.1773 85.8492 33.2767C85.2391 33.376 84.5652 33.4256 83.8275 33.4256C82.4796 33.4256 81.3021 33.2057 80.2948 32.7659C79.3016 32.3119 78.5355 31.5883 77.9964 30.5952C77.4573 29.6021 77.1877 28.2968 77.1877 26.6794V4.29146ZM103.194 27.8074V17.5497C103.194 16.812 103.073 16.1806 102.832 15.6557C102.591 15.1166 102.215 14.698 101.704 14.4001C101.207 14.1022 100.562 13.9532 99.7672 13.9532C99.0862 13.9532 98.4974 14.0738 98.0009 14.315C97.5043 14.542 97.1212 14.8754 96.8517 15.3152C96.5821 15.7408 96.4473 16.2445 96.4473 16.8262H90.3183C90.3183 15.8472 90.5453 14.9179 90.9993 14.0383C91.4533 13.1587 92.113 12.3855 92.9785 11.7186C93.8439 11.0376 94.8725 10.5056 96.0643 10.1225C97.2702 9.73948 98.618 9.54795 100.108 9.54795C101.895 9.54795 103.484 9.84589 104.875 10.4418C106.265 11.0376 107.358 11.9315 108.152 13.1232C108.961 14.315 109.365 15.8047 109.365 17.5923V27.4456C109.365 28.7083 109.443 29.744 109.599 30.5526C109.755 31.3471 109.982 32.0423 110.28 32.6382V33H104.087C103.789 32.3757 103.562 31.5954 103.406 30.6591C103.264 29.7085 103.194 28.7579 103.194 27.8074ZM104.002 18.9756L104.045 22.4444H100.618C99.8098 22.4444 99.1075 22.5367 98.5116 22.7211C97.9157 22.9055 97.4263 23.168 97.0432 23.5085C96.6601 23.8348 96.3764 24.2179 96.1919 24.6577C96.0217 25.0975 95.9366 25.5799 95.9366 26.1048C95.9366 26.6298 96.0572 27.1051 96.2983 27.5307C96.5395 27.9421 96.8871 28.2684 97.3411 28.5096C97.7951 28.7366 98.3272 28.8501 98.9372 28.8501C99.8594 28.8501 100.661 28.6657 101.342 28.2968C102.023 27.9279 102.548 27.4739 102.917 26.9348C103.3 26.3957 103.499 25.8849 103.513 25.4026L105.13 27.9989C104.903 28.5806 104.591 29.1835 104.194 29.8078C103.811 30.4321 103.321 31.0208 102.725 31.5741C102.129 32.1133 101.413 32.5602 100.576 32.9149C99.7388 33.2554 98.7457 33.4256 97.5965 33.4256C96.1352 33.4256 94.8087 33.1348 93.6169 32.5531C92.4393 31.9572 91.5029 31.1414 90.8078 30.1057C90.1268 29.0559 89.7863 27.8641 89.7863 26.5305C89.7863 25.3245 90.0133 24.2534 90.4673 23.317C90.9213 22.3806 91.5881 21.5932 92.4677 20.9548C93.3615 20.3021 94.4752 19.8127 95.8089 19.4863C97.1425 19.1458 98.689 18.9756 100.448 18.9756H104.002ZM132.434 22.7211H138.797C138.67 24.8067 138.095 26.6582 137.073 28.2755C136.066 29.8929 134.654 31.1556 132.838 32.0636C131.037 32.9716 128.866 33.4256 126.326 33.4256C124.34 33.4256 122.56 33.0851 120.985 32.4041C119.41 31.7089 118.062 30.7158 116.941 29.4247C115.835 28.1337 114.99 26.573 114.409 24.7428C113.827 22.9126 113.536 20.8625 113.536 18.5925V16.4431C113.536 14.1731 113.834 12.123 114.43 10.2928C115.04 8.44841 115.906 6.88069 117.026 5.58962C118.161 4.29855 119.516 3.30542 121.091 2.61023C122.666 1.91504 124.425 1.56744 126.369 1.56744C128.951 1.56744 131.129 2.03563 132.902 2.97201C134.69 3.90839 136.073 5.19946 137.052 6.84522C138.045 8.49098 138.641 10.3637 138.84 12.4635H132.455C132.384 11.215 132.136 10.158 131.711 9.29257C131.285 8.41294 130.639 7.75322 129.774 7.31341C128.923 6.85941 127.788 6.6324 126.369 6.6324C125.305 6.6324 124.376 6.83103 123.581 7.22828C122.787 7.62553 122.12 8.22851 121.581 9.0372C121.041 9.84589 120.637 10.8674 120.368 12.1017C120.112 13.3218 119.984 14.7548 119.984 16.4005V18.5925C119.984 20.1957 120.105 21.6074 120.346 22.8275C120.587 24.0335 120.956 25.055 121.453 25.892C121.964 26.7149 122.616 27.3392 123.411 27.7648C124.219 28.1762 125.191 28.3819 126.326 28.3819C127.66 28.3819 128.759 28.1691 129.625 27.7435C130.49 27.3179 131.15 26.6865 131.604 25.8495C132.072 25.0124 132.349 23.9696 132.434 22.7211ZM141.628 21.7209V21.274C141.628 19.5857 141.869 18.0321 142.351 16.6134C142.834 15.1804 143.536 13.939 144.458 12.8891C145.38 11.8392 146.515 11.0235 147.863 10.4418C149.211 9.84589 150.757 9.54795 152.502 9.54795C154.247 9.54795 155.801 9.84589 157.163 10.4418C158.525 11.0235 159.667 11.8392 160.589 12.8891C161.526 13.939 162.235 15.1804 162.717 16.6134C163.2 18.0321 163.441 19.5857 163.441 21.274V21.7209C163.441 23.395 163.2 24.9486 162.717 26.3815C162.235 27.8003 161.526 29.0417 160.589 30.1057C159.667 31.1556 158.532 31.9714 157.184 32.5531C155.836 33.1348 154.29 33.4256 152.545 33.4256C150.8 33.4256 149.246 33.1348 147.884 32.5531C146.537 31.9714 145.394 31.1556 144.458 30.1057C143.536 29.0417 142.834 27.8003 142.351 26.3815C141.869 24.9486 141.628 23.395 141.628 21.7209ZM147.757 21.274V21.7209C147.757 22.6856 147.842 23.5865 148.012 24.4236C148.182 25.2607 148.452 25.9984 148.821 26.6369C149.204 27.2611 149.7 27.7506 150.31 28.1053C150.92 28.46 151.665 28.6373 152.545 28.6373C153.396 28.6373 154.127 28.46 154.737 28.1053C155.347 27.7506 155.836 27.2611 156.205 26.6369C156.574 25.9984 156.844 25.2607 157.014 24.4236C157.198 23.5865 157.291 22.6856 157.291 21.7209V21.274C157.291 20.3376 157.198 19.458 157.014 18.6351C156.844 17.798 156.567 17.0603 156.184 16.4218C155.815 15.7692 155.326 15.2584 154.716 14.8896C154.106 14.5207 153.368 14.3363 152.502 14.3363C151.637 14.3363 150.899 14.5207 150.289 14.8896C149.693 15.2584 149.204 15.7692 148.821 16.4218C148.452 17.0603 148.182 17.798 148.012 18.6351C147.842 19.458 147.757 20.3376 147.757 21.274ZM173.209 14.8896V33H167.08V9.97358H172.826L173.209 14.8896ZM172.315 20.6781H170.655C170.655 18.9756 170.875 17.4433 171.315 16.0813C171.755 14.7051 172.372 13.5347 173.167 12.5699C173.961 11.591 174.905 10.8461 175.997 10.3354C177.104 9.81042 178.338 9.54795 179.7 9.54795C180.778 9.54795 181.764 9.70401 182.658 10.0161C183.552 10.3283 184.318 10.8248 184.956 11.5058C185.609 12.1868 186.106 13.0877 186.446 14.2086C186.801 15.3294 186.978 16.6985 186.978 18.3159V33H180.807V18.2946C180.807 17.2731 180.665 16.4786 180.381 15.9111C180.097 15.3436 179.679 14.9463 179.125 14.7193C178.586 14.4781 177.919 14.3575 177.125 14.3575C176.302 14.3575 175.586 14.5207 174.976 14.847C174.38 15.1733 173.883 15.6273 173.486 16.209C173.103 16.7765 172.812 17.4433 172.613 18.2095C172.415 18.9756 172.315 19.7985 172.315 20.6781ZM215.006 19.4012H207.047L207.004 15.0173H213.686C214.864 15.0173 215.829 14.8683 216.581 14.5703C217.332 14.2582 217.893 13.8113 218.262 13.2296C218.645 12.6337 218.836 11.9102 218.836 11.0589C218.836 10.0942 218.652 9.31385 218.283 8.71798C217.928 8.1221 217.368 7.68938 216.602 7.41981C215.85 7.15025 214.878 7.01547 213.686 7.01547H209.26V33H202.875V2.01435H213.686C215.488 2.01435 217.098 2.1846 218.517 2.5251C219.95 2.86561 221.163 3.38345 222.156 4.07864C223.149 4.77383 223.908 5.65346 224.433 6.71753C224.958 7.76741 225.221 9.01592 225.221 10.463C225.221 11.7399 224.93 12.9175 224.348 13.9958C223.781 15.074 222.88 15.9536 221.646 16.6346C220.425 17.3156 218.829 17.6916 216.857 17.7626L215.006 19.4012ZM214.729 33H205.301L207.791 28.0202H214.729C215.85 28.0202 216.765 27.8428 217.474 27.4881C218.184 27.1193 218.709 26.6227 219.049 25.9984C219.39 25.3742 219.56 24.6577 219.56 23.849C219.56 22.941 219.404 22.1536 219.092 21.4868C218.794 20.82 218.311 20.3092 217.645 19.9545C216.978 19.5857 216.098 19.4012 215.006 19.4012H208.855L208.898 15.0173H216.559L218.028 16.741C219.915 16.7127 221.433 17.0461 222.582 17.7413C223.745 18.4223 224.589 19.309 225.114 20.4014C225.653 21.4939 225.923 22.6644 225.923 23.9129C225.923 25.8991 225.49 27.5733 224.625 28.9353C223.759 30.2831 222.49 31.2975 220.816 31.9785C219.156 32.6595 217.127 33 214.729 33ZM242.757 27.8074V17.5497C242.757 16.812 242.636 16.1806 242.395 15.6557C242.154 15.1166 241.778 14.698 241.267 14.4001C240.77 14.1022 240.125 13.9532 239.33 13.9532C238.649 13.9532 238.061 14.0738 237.564 14.315C237.067 14.542 236.684 14.8754 236.415 15.3152C236.145 15.7408 236.01 16.2445 236.01 16.8262H229.881C229.881 15.8472 230.108 14.9179 230.562 14.0383C231.016 13.1587 231.676 12.3855 232.542 11.7186C233.407 11.0376 234.436 10.5056 235.627 10.1225C236.833 9.73948 238.181 9.54795 239.671 9.54795C241.458 9.54795 243.047 9.84589 244.438 10.4418C245.828 11.0376 246.921 11.9315 247.715 13.1232C248.524 14.315 248.928 15.8047 248.928 17.5923V27.4456C248.928 28.7083 249.006 29.744 249.162 30.5526C249.318 31.3471 249.545 32.0423 249.843 32.6382V33H243.65C243.352 32.3757 243.125 31.5954 242.969 30.6591C242.828 29.7085 242.757 28.7579 242.757 27.8074ZM243.565 18.9756L243.608 22.4444H240.182C239.373 22.4444 238.671 22.5367 238.075 22.7211C237.479 22.9055 236.989 23.168 236.606 23.5085C236.223 23.8348 235.939 24.2179 235.755 24.6577C235.585 25.0975 235.5 25.5799 235.5 26.1048C235.5 26.6298 235.62 27.1051 235.861 27.5307C236.103 27.9421 236.45 28.2684 236.904 28.5096C237.358 28.7366 237.89 28.8501 238.5 28.8501C239.423 28.8501 240.224 28.6657 240.905 28.2968C241.586 27.9279 242.111 27.4739 242.48 26.9348C242.863 26.3957 243.062 25.8849 243.076 25.4026L244.693 27.9989C244.466 28.5806 244.154 29.1835 243.757 29.8078C243.374 30.4321 242.884 31.0208 242.288 31.5741C241.693 32.1133 240.976 32.5602 240.139 32.9149C239.302 33.2554 238.309 33.4256 237.16 33.4256C235.698 33.4256 234.372 33.1348 233.18 32.5531C232.002 31.9572 231.066 31.1414 230.371 30.1057C229.69 29.0559 229.349 27.8641 229.349 26.5305C229.349 25.3245 229.576 24.2534 230.03 23.317C230.484 22.3806 231.151 21.5932 232.031 20.9548C232.925 20.3021 234.038 19.8127 235.372 19.4863C236.706 19.1458 238.252 18.9756 240.011 18.9756H243.565ZM259.782 14.996V33H253.653V9.97358H259.42L259.782 14.996ZM266.719 9.82461L266.613 15.5067C266.315 15.4642 265.953 15.4287 265.528 15.4003C265.116 15.3578 264.74 15.3365 264.4 15.3365C263.534 15.3365 262.782 15.45 262.144 15.677C261.52 15.8898 260.995 16.209 260.569 16.6346C260.158 17.0603 259.846 17.5781 259.633 18.1882C259.434 18.7982 259.321 19.4934 259.292 20.2738L258.058 19.8907C258.058 18.401 258.207 17.0319 258.505 15.7834C258.803 14.5207 259.235 13.4212 259.803 12.4848C260.385 11.5484 261.094 10.8248 261.931 10.3141C262.768 9.80333 263.726 9.54795 264.804 9.54795C265.145 9.54795 265.492 9.57632 265.847 9.63308C266.202 9.67564 266.492 9.73948 266.719 9.82461ZM280.85 2.01435H292.406C294.775 2.01435 296.811 2.36904 298.514 3.07842C300.23 3.7878 301.55 4.83768 302.472 6.22806C303.394 7.61844 303.855 9.32804 303.855 11.3569C303.855 13.0168 303.572 14.4427 303.004 15.6344C302.451 16.812 301.663 17.798 300.642 18.5925C299.635 19.3728 298.45 19.9971 297.088 20.4653L295.066 21.5294H285.021L284.979 16.5495H292.449C293.569 16.5495 294.499 16.3509 295.236 15.9536C295.974 15.5564 296.527 15.0031 296.896 14.2937C297.279 13.5843 297.471 12.7614 297.471 11.8251C297.471 10.8319 297.287 9.97358 296.918 9.25001C296.549 8.52644 295.988 7.97313 295.236 7.59007C294.484 7.207 293.541 7.01547 292.406 7.01547H287.235V33H280.85V2.01435ZM298.173 33L291.108 19.1884L297.854 19.1458L305.005 32.7021V33H298.173ZM307.409 21.7209V21.274C307.409 19.5857 307.651 18.0321 308.133 16.6134C308.615 15.1804 309.318 13.939 310.24 12.8891C311.162 11.8392 312.297 11.0235 313.645 10.4418C314.993 9.84589 316.539 9.54795 318.284 9.54795C320.029 9.54795 321.583 9.84589 322.945 10.4418C324.307 11.0235 325.449 11.8392 326.371 12.8891C327.307 13.939 328.017 15.1804 328.499 16.6134C328.982 18.0321 329.223 19.5857 329.223 21.274V21.7209C329.223 23.395 328.982 24.9486 328.499 26.3815C328.017 27.8003 327.307 29.0417 326.371 30.1057C325.449 31.1556 324.314 31.9714 322.966 32.5531C321.618 33.1348 320.072 33.4256 318.327 33.4256C316.582 33.4256 315.028 33.1348 313.666 32.5531C312.318 31.9714 311.176 31.1556 310.24 30.1057C309.318 29.0417 308.615 27.8003 308.133 26.3815C307.651 24.9486 307.409 23.395 307.409 21.7209ZM313.538 21.274V21.7209C313.538 22.6856 313.624 23.5865 313.794 24.4236C313.964 25.2607 314.234 25.9984 314.602 26.6369C314.986 27.2611 315.482 27.7506 316.092 28.1053C316.702 28.46 317.447 28.6373 318.327 28.6373C319.178 28.6373 319.909 28.46 320.519 28.1053C321.129 27.7506 321.618 27.2611 321.987 26.6369C322.356 25.9984 322.626 25.2607 322.796 24.4236C322.98 23.5865 323.072 22.6856 323.072 21.7209V21.274C323.072 20.3376 322.98 19.458 322.796 18.6351C322.626 17.798 322.349 17.0603 321.966 16.4218C321.597 15.7692 321.107 15.2584 320.497 14.8896C319.887 14.5207 319.15 14.3363 318.284 14.3363C317.419 14.3363 316.681 14.5207 316.071 14.8896C315.475 15.2584 314.986 15.7692 314.602 16.4218C314.234 17.0603 313.964 17.798 313.794 18.6351C313.624 19.458 313.538 20.3376 313.538 21.274ZM346.61 27.4881V9.97358H352.739V33H346.971L346.61 27.4881ZM347.291 22.7637L349.1 22.7211C349.1 24.2534 348.922 25.6792 348.567 26.9987C348.213 28.3039 347.681 29.4389 346.971 30.4037C346.262 31.3542 345.368 32.0991 344.29 32.6382C343.212 33.1632 341.942 33.4256 340.481 33.4256C339.36 33.4256 338.324 33.2696 337.373 32.9574C336.437 32.6311 335.628 32.1275 334.947 31.4465C334.281 30.7513 333.756 29.8645 333.373 28.7863C333.004 27.6938 332.819 26.3815 332.819 24.8492V9.97358H338.948V24.8918C338.948 25.5728 339.026 26.1474 339.182 26.6156C339.353 27.0838 339.587 27.4668 339.885 27.7648C340.183 28.0627 340.53 28.2755 340.927 28.4032C341.339 28.5309 341.793 28.5948 342.289 28.5948C343.552 28.5948 344.545 28.3394 345.269 27.8286C346.007 27.3179 346.524 26.6227 346.822 25.7431C347.135 24.8492 347.291 23.8561 347.291 22.7637ZM368.7 9.97358V14.315H355.292V9.97358H368.7ZM358.612 4.29146H364.741V26.0623C364.741 26.7291 364.826 27.2398 364.997 27.5945C365.181 27.9492 365.451 28.1975 365.805 28.3394C366.16 28.4671 366.607 28.5309 367.146 28.5309C367.529 28.5309 367.87 28.5167 368.168 28.4884C368.48 28.4458 368.742 28.4032 368.955 28.3607L368.976 32.8723C368.451 33.0426 367.884 33.1773 367.274 33.2767C366.664 33.376 365.99 33.4256 365.252 33.4256C363.904 33.4256 362.727 33.2057 361.719 32.7659C360.726 32.3119 359.96 31.5883 359.421 30.5952C358.882 29.6021 358.612 28.2968 358.612 26.6794V4.29146ZM382.788 33.4256C381 33.4256 379.397 33.1419 377.978 32.5744C376.56 31.9927 375.354 31.1911 374.36 30.1696C373.382 29.1481 372.63 27.9634 372.105 26.6156C371.58 25.2536 371.317 23.8065 371.317 22.2742V21.4229C371.317 19.6779 371.566 18.0818 372.062 16.6346C372.559 15.1875 373.268 13.9319 374.19 12.8678C375.127 11.8038 376.262 10.988 377.595 10.4205C378.929 9.83879 380.433 9.54795 382.107 9.54795C383.738 9.54795 385.186 9.81751 386.448 10.3566C387.711 10.8958 388.768 11.6619 389.619 12.655C390.485 13.6482 391.137 14.8399 391.577 16.2303C392.017 17.6065 392.237 19.1387 392.237 20.8271V23.3808H373.935V19.2948H386.214V18.8266C386.214 17.9754 386.058 17.2163 385.746 16.5495C385.448 15.8685 384.994 15.3294 384.384 14.9321C383.774 14.5349 382.994 14.3363 382.043 14.3363C381.234 14.3363 380.539 14.5136 379.957 14.8683C379.376 15.223 378.901 15.7195 378.532 16.358C378.177 16.9964 377.907 17.7484 377.723 18.6138C377.553 19.4651 377.468 20.4014 377.468 21.4229V22.2742C377.468 23.1964 377.595 24.0476 377.851 24.828C378.12 25.6083 378.496 26.2822 378.979 26.8497C379.475 27.4172 380.071 27.857 380.766 28.1691C381.476 28.4813 382.277 28.6373 383.171 28.6373C384.278 28.6373 385.306 28.4245 386.257 27.9989C387.222 27.5591 388.051 26.8993 388.747 26.0197L391.726 29.2545C391.244 29.9497 390.584 30.6165 389.747 31.2549C388.924 31.8934 387.931 32.4183 386.768 32.8297C385.604 33.227 384.278 33.4256 382.788 33.4256ZM431.522 16.8049V29.0842C431.04 29.6659 430.295 30.2973 429.288 30.9783C428.28 31.6451 426.982 32.2197 425.393 32.7021C423.804 33.1844 421.882 33.4256 419.626 33.4256C417.625 33.4256 415.802 33.0993 414.157 32.4467C412.511 31.7799 411.092 30.808 409.9 29.5311C408.723 28.2543 407.815 26.6936 407.176 24.8492C406.538 22.9907 406.219 20.8696 406.219 18.4861V16.5495C406.219 14.166 406.524 12.045 407.134 10.1864C407.758 8.32782 408.645 6.76009 409.794 5.48321C410.943 4.20633 412.312 3.23448 413.901 2.56767C415.49 1.90085 417.257 1.56744 419.2 1.56744C421.896 1.56744 424.109 2.00726 425.84 2.88689C427.571 3.75233 428.89 4.95827 429.798 6.50472C430.721 8.03697 431.288 9.79623 431.501 11.7825H425.308C425.152 10.7326 424.854 9.81751 424.414 9.0372C423.974 8.25688 423.343 7.64682 422.52 7.207C421.712 6.76719 420.662 6.54728 419.371 6.54728C418.306 6.54728 417.356 6.76719 416.519 7.207C415.696 7.63263 415.001 8.26397 414.433 9.10104C413.866 9.93811 413.433 10.9738 413.135 12.2081C412.837 13.4424 412.688 14.8754 412.688 16.507V18.4861C412.688 20.1035 412.844 21.5364 413.156 22.785C413.469 24.0193 413.93 25.0621 414.54 25.9133C415.164 26.7504 415.93 27.3817 416.838 27.8074C417.746 28.233 418.803 28.4458 420.009 28.4458C421.016 28.4458 421.853 28.3607 422.52 28.1904C423.201 28.0202 423.747 27.8144 424.159 27.5733C424.584 27.3179 424.911 27.0767 425.138 26.8497V21.3591H419.307V16.8049H431.522ZM449.909 27.4881V9.97358H456.038V33H450.271L449.909 27.4881ZM450.59 22.7637L452.399 22.7211C452.399 24.2534 452.222 25.6792 451.867 26.9987C451.512 28.3039 450.98 29.4389 450.271 30.4037C449.562 31.3542 448.668 32.0991 447.59 32.6382C446.511 33.1632 445.242 33.4256 443.78 33.4256C442.659 33.4256 441.624 33.2696 440.673 32.9574C439.737 32.6311 438.928 32.1275 438.247 31.4465C437.58 30.7513 437.055 29.8645 436.672 28.7863C436.303 27.6938 436.119 26.3815 436.119 24.8492V9.97358H442.248V24.8918C442.248 25.5728 442.326 26.1474 442.482 26.6156C442.652 27.0838 442.886 27.4668 443.184 27.7648C443.482 28.0627 443.83 28.2755 444.227 28.4032C444.639 28.5309 445.093 28.5948 445.589 28.5948C446.852 28.5948 447.845 28.3394 448.569 27.8286C449.306 27.3179 449.824 26.6227 450.122 25.7431C450.434 24.8492 450.59 23.8561 450.59 22.7637ZM467.19 9.97358V33H461.039V9.97358H467.19ZM460.656 3.97224C460.656 3.07842 460.968 2.34067 461.593 1.75897C462.217 1.17728 463.054 0.886439 464.104 0.886439C465.14 0.886439 465.97 1.17728 466.594 1.75897C467.232 2.34067 467.552 3.07842 467.552 3.97224C467.552 4.86605 467.232 5.60381 466.594 6.1855C465.97 6.76719 465.14 7.05803 464.104 7.05803C463.054 7.05803 462.217 6.76719 461.593 6.1855C460.968 5.60381 460.656 4.86605 460.656 3.97224ZM485.853 27.9776V0.311843H492.025V33H486.471L485.853 27.9776ZM471.297 21.7634V21.3165C471.297 19.5573 471.496 17.9612 471.893 16.5282C472.29 15.0811 472.872 13.8397 473.638 12.804C474.404 11.7683 475.348 10.9667 476.468 10.3992C477.589 9.8317 478.866 9.54795 480.299 9.54795C481.647 9.54795 482.824 9.8317 483.832 10.3992C484.853 10.9667 485.719 11.7754 486.428 12.8253C487.152 13.861 487.733 15.0882 488.173 16.507C488.613 17.9115 488.932 19.4509 489.131 21.125V22.1039C488.932 23.7071 488.613 25.1968 488.173 26.573C487.733 27.9492 487.152 29.1552 486.428 30.1909C485.719 31.2124 484.853 32.0069 483.832 32.5744C482.81 33.1419 481.618 33.4256 480.256 33.4256C478.824 33.4256 477.547 33.1348 476.426 32.5531C475.319 31.9714 474.383 31.1556 473.617 30.1057C472.865 29.0559 472.29 27.8215 471.893 26.4028C471.496 24.984 471.297 23.4376 471.297 21.7634ZM477.426 21.3165V21.7634C477.426 22.714 477.497 23.6007 477.639 24.4236C477.795 25.2465 478.043 25.9772 478.384 26.6156C478.738 27.2398 479.192 27.7293 479.746 28.084C480.313 28.4245 481.001 28.5948 481.81 28.5948C482.86 28.5948 483.725 28.3607 484.406 27.8925C485.087 27.4101 485.605 26.7504 485.96 25.9133C486.329 25.0762 486.542 24.1115 486.598 23.019V20.2312C486.556 19.3374 486.428 18.5358 486.215 17.8264C486.017 17.1028 485.719 16.4857 485.321 15.9749C484.938 15.4642 484.456 15.0669 483.874 14.7832C483.307 14.4994 482.633 14.3575 481.853 14.3575C481.058 14.3575 480.377 14.542 479.81 14.9109C479.242 15.2655 478.781 15.755 478.426 16.3793C478.086 17.0035 477.83 17.7413 477.66 18.5925C477.504 19.4296 477.426 20.3376 477.426 21.3165ZM507.411 33.4256C505.624 33.4256 504.021 33.1419 502.602 32.5744C501.183 31.9927 499.977 31.1911 498.984 30.1696C498.005 29.1481 497.253 27.9634 496.728 26.6156C496.203 25.2536 495.941 23.8065 495.941 22.2742V21.4229C495.941 19.6779 496.189 18.0818 496.686 16.6346C497.182 15.1875 497.892 13.9319 498.814 12.8678C499.75 11.8038 500.885 10.988 502.219 10.4205C503.552 9.83879 505.056 9.54795 506.73 9.54795C508.362 9.54795 509.809 9.81751 511.072 10.3566C512.335 10.8958 513.392 11.6619 514.243 12.655C515.108 13.6482 515.761 14.8399 516.201 16.2303C516.641 17.6065 516.86 19.1387 516.86 20.8271V23.3808H498.558V19.2948H510.838V18.8266C510.838 17.9754 510.682 17.2163 510.37 16.5495C510.072 15.8685 509.618 15.3294 509.008 14.9321C508.398 14.5349 507.617 14.3363 506.667 14.3363C505.858 14.3363 505.163 14.5136 504.581 14.8683C503.999 15.223 503.524 15.7195 503.155 16.358C502.801 16.9964 502.531 17.7484 502.347 18.6138C502.176 19.4651 502.091 20.4014 502.091 21.4229V22.2742C502.091 23.1964 502.219 24.0476 502.474 24.828C502.744 25.6083 503.12 26.2822 503.602 26.8497C504.099 27.4172 504.695 27.857 505.39 28.1691C506.099 28.4813 506.901 28.6373 507.795 28.6373C508.901 28.6373 509.93 28.4245 510.88 27.9989C511.845 27.5591 512.675 26.8993 513.37 26.0197L516.35 29.2545C515.867 29.9497 515.208 30.6165 514.37 31.2549C513.548 31.8934 512.554 32.4183 511.391 32.8297C510.228 33.227 508.901 33.4256 507.411 33.4256Z" fill="#272727"/>
</svg>
