<svg width="136" height="160" viewBox="0 0 136 160" fill="none" xmlns="http://www.w3.org/2000/svg">
<g filter="url(#filter0_d_13_242)">
<circle cx="68" cy="58" r="48" fill="#FF4D2E"/>
<circle cx="68" cy="58" r="50" stroke="white" stroke-width="4"/>
</g>
<path fill-rule="evenodd" clip-rule="evenodd" d="M101.94 60.1177C103.273 59.3479 103.273 57.4234 101.94 56.6536L70.5985 38.5588C69.2651 37.789 67.5985 38.7512 67.5985 40.2908V52.7644L39.0907 52.7644C35.5427 52.7644 32.6665 55.6406 32.6665 59.1887C32.6665 62.7367 35.5427 65.6129 39.0907 65.6129H67.5985V76.4804C67.5985 78.02 69.2651 78.9823 70.5985 78.2125L101.94 60.1177Z" fill="white"/>
<path d="M11.6797 148.465C11.6797 148.199 11.6406 147.961 11.5625 147.75C11.4844 147.531 11.3398 147.328 11.1289 147.141C10.918 146.953 10.6133 146.766 10.2148 146.578C9.82422 146.383 9.30859 146.18 8.66797 145.969C7.91797 145.719 7.19531 145.438 6.5 145.125C5.80469 144.805 5.18359 144.434 4.63672 144.012C4.08984 143.582 3.65625 143.082 3.33594 142.512C3.01562 141.934 2.85547 141.262 2.85547 140.496C2.85547 139.762 3.01953 139.102 3.34766 138.516C3.67578 137.922 4.13281 137.418 4.71875 137.004C5.3125 136.582 6.00781 136.262 6.80469 136.043C7.60156 135.816 8.47266 135.703 9.41797 135.703C10.668 135.703 11.7695 135.922 12.7227 136.359C13.6836 136.789 14.4336 137.402 14.9727 138.199C15.5195 138.988 15.793 139.922 15.793 141H11.7031C11.7031 140.57 11.6133 140.191 11.4336 139.863C11.2617 139.535 11 139.277 10.6484 139.09C10.2969 138.902 9.85547 138.809 9.32422 138.809C8.80859 138.809 8.375 138.887 8.02344 139.043C7.67188 139.199 7.40625 139.41 7.22656 139.676C7.04688 139.934 6.95703 140.219 6.95703 140.531C6.95703 140.789 7.02734 141.023 7.16797 141.234C7.31641 141.438 7.52344 141.629 7.78906 141.809C8.0625 141.988 8.39062 142.16 8.77344 142.324C9.16406 142.488 9.60156 142.648 10.0859 142.805C10.9922 143.094 11.7969 143.418 12.5 143.777C13.2109 144.129 13.8086 144.531 14.293 144.984C14.7852 145.43 15.1562 145.938 15.4062 146.508C15.6641 147.078 15.793 147.723 15.793 148.441C15.793 149.207 15.6445 149.887 15.3477 150.48C15.0508 151.074 14.625 151.578 14.0703 151.992C13.5156 152.398 12.8516 152.707 12.0781 152.918C11.3047 153.129 10.4414 153.234 9.48828 153.234C8.61328 153.234 7.75 153.125 6.89844 152.906C6.05469 152.68 5.28906 152.336 4.60156 151.875C3.91406 151.406 3.36328 150.809 2.94922 150.082C2.54297 149.348 2.33984 148.477 2.33984 147.469H6.46484C6.46484 147.969 6.53125 148.391 6.66406 148.734C6.79688 149.078 6.99219 149.355 7.25 149.566C7.50781 149.77 7.82422 149.918 8.19922 150.012C8.57422 150.098 9.00391 150.141 9.48828 150.141C10.0117 150.141 10.4336 150.066 10.7539 149.918C11.0742 149.762 11.3086 149.559 11.457 149.309C11.6055 149.051 11.6797 148.77 11.6797 148.465ZM23.8672 153.234C22.8359 153.234 21.9141 153.074 21.1016 152.754C20.2891 152.426 19.6016 151.977 19.0391 151.406C18.4844 150.836 18.0586 150.18 17.7617 149.438C17.4727 148.695 17.3281 147.91 17.3281 147.082V146.637C17.3281 145.707 17.457 144.848 17.7148 144.059C17.9727 143.262 18.3555 142.566 18.8633 141.973C19.3711 141.379 20.0078 140.918 20.7734 140.59C21.5391 140.254 22.4297 140.086 23.4453 140.086C24.3438 140.086 25.1484 140.23 25.8594 140.52C26.5703 140.809 27.1719 141.223 27.6641 141.762C28.1641 142.301 28.543 142.953 28.8008 143.719C29.0664 144.484 29.1992 145.344 29.1992 146.297V147.902H18.8398V145.43H25.3438V145.125C25.3516 144.703 25.2773 144.344 25.1211 144.047C24.9727 143.75 24.7539 143.523 24.4648 143.367C24.1758 143.211 23.8242 143.133 23.4102 143.133C22.9805 143.133 22.625 143.227 22.3438 143.414C22.0703 143.602 21.8555 143.859 21.6992 144.188C21.5508 144.508 21.4453 144.879 21.3828 145.301C21.3203 145.723 21.2891 146.168 21.2891 146.637V147.082C21.2891 147.551 21.3516 147.977 21.4766 148.359C21.6094 148.742 21.7969 149.07 22.0391 149.344C22.2891 149.609 22.5859 149.816 22.9297 149.965C23.2812 150.113 23.6797 150.188 24.125 150.188C24.6641 150.188 25.1953 150.086 25.7188 149.883C26.2422 149.68 26.6914 149.344 27.0664 148.875L28.8594 151.008C28.6016 151.375 28.2344 151.73 27.7578 152.074C27.2891 152.418 26.7266 152.699 26.0703 152.918C25.4141 153.129 24.6797 153.234 23.8672 153.234ZM34.9766 135V153H31.0156V135H34.9766ZM43.5547 153.234C42.5234 153.234 41.6016 153.074 40.7891 152.754C39.9766 152.426 39.2891 151.977 38.7266 151.406C38.1719 150.836 37.7461 150.18 37.4492 149.438C37.1602 148.695 37.0156 147.91 37.0156 147.082V146.637C37.0156 145.707 37.1445 144.848 37.4023 144.059C37.6602 143.262 38.043 142.566 38.5508 141.973C39.0586 141.379 39.6953 140.918 40.4609 140.59C41.2266 140.254 42.1172 140.086 43.1328 140.086C44.0312 140.086 44.8359 140.23 45.5469 140.52C46.2578 140.809 46.8594 141.223 47.3516 141.762C47.8516 142.301 48.2305 142.953 48.4883 143.719C48.7539 144.484 48.8867 145.344 48.8867 146.297V147.902H38.5273V145.43H45.0312V145.125C45.0391 144.703 44.9648 144.344 44.8086 144.047C44.6602 143.75 44.4414 143.523 44.1523 143.367C43.8633 143.211 43.5117 143.133 43.0977 143.133C42.668 143.133 42.3125 143.227 42.0312 143.414C41.7578 143.602 41.543 143.859 41.3867 144.188C41.2383 144.508 41.1328 144.879 41.0703 145.301C41.0078 145.723 40.9766 146.168 40.9766 146.637V147.082C40.9766 147.551 41.0391 147.977 41.1641 148.359C41.2969 148.742 41.4844 149.07 41.7266 149.344C41.9766 149.609 42.2734 149.816 42.6172 149.965C42.9688 150.113 43.3672 150.188 43.8125 150.188C44.3516 150.188 44.8828 150.086 45.4062 149.883C45.9297 149.68 46.3789 149.344 46.7539 148.875L48.5469 151.008C48.2891 151.375 47.9219 151.73 47.4453 152.074C46.9766 152.418 46.4141 152.699 45.7578 152.918C45.1016 153.129 44.3672 153.234 43.5547 153.234ZM55.8477 150.188C56.2148 150.188 56.5273 150.121 56.7852 149.988C57.0508 149.848 57.25 149.652 57.3828 149.402C57.5234 149.145 57.5898 148.836 57.582 148.477H61.2969C61.3047 149.43 61.0703 150.266 60.5938 150.984C60.125 151.695 59.4844 152.25 58.6719 152.648C57.8672 153.039 56.957 153.234 55.9414 153.234C54.9492 153.234 54.082 153.074 53.3398 152.754C52.5977 152.426 51.9766 151.973 51.4766 151.395C50.9844 150.809 50.6133 150.125 50.3633 149.344C50.1211 148.562 50 147.715 50 146.801V146.531C50 145.617 50.1211 144.77 50.3633 143.988C50.6133 143.199 50.9844 142.516 51.4766 141.938C51.9766 141.352 52.5938 140.898 53.3281 140.578C54.0703 140.25 54.9336 140.086 55.918 140.086C56.9727 140.086 57.9023 140.285 58.707 140.684C59.5195 141.082 60.1562 141.66 60.6172 142.418C61.0781 143.176 61.3047 144.094 61.2969 145.172H57.582C57.5898 144.789 57.5312 144.445 57.4062 144.141C57.2812 143.836 57.0859 143.594 56.8203 143.414C56.5625 143.227 56.2305 143.133 55.8242 143.133C55.418 143.133 55.0898 143.223 54.8398 143.402C54.5898 143.582 54.3984 143.832 54.2656 144.152C54.1406 144.465 54.0547 144.824 54.0078 145.23C53.9688 145.637 53.9492 146.07 53.9492 146.531V146.801C53.9492 147.27 53.9688 147.711 54.0078 148.125C54.0547 148.531 54.1445 148.891 54.2773 149.203C54.4102 149.508 54.6016 149.75 54.8516 149.93C55.1016 150.102 55.4336 150.188 55.8477 150.188ZM69.6641 140.32V143.062H62.0234V140.32H69.6641ZM63.6289 137.168H67.5781V148.863C67.5781 149.199 67.6172 149.461 67.6953 149.648C67.7734 149.828 67.9062 149.957 68.0938 150.035C68.2891 150.105 68.5469 150.141 68.8672 150.141C69.0938 150.141 69.2812 150.137 69.4297 150.129C69.5781 150.113 69.7188 150.094 69.8516 150.07V152.895C69.5156 153.004 69.1641 153.086 68.7969 153.141C68.4297 153.203 68.0391 153.234 67.625 153.234C66.7812 153.234 66.0586 153.102 65.457 152.836C64.8633 152.57 64.4102 152.152 64.0977 151.582C63.7852 151.012 63.6289 150.27 63.6289 149.355V137.168ZM88.8945 142.711V145.875H80.1406V142.711H88.8945ZM81.5117 135.938V153H77.3984V135.938H81.5117ZM91.6602 135.938V153H87.5586V135.938H91.6602ZM93.5938 146.789V146.543C93.5938 145.613 93.7266 144.758 93.9922 143.977C94.2578 143.188 94.6484 142.504 95.1641 141.926C95.6797 141.348 96.3164 140.898 97.0742 140.578C97.832 140.25 98.707 140.086 99.6992 140.086C100.699 140.086 101.578 140.25 102.336 140.578C103.102 140.898 103.742 141.348 104.258 141.926C104.773 142.504 105.164 143.188 105.43 143.977C105.695 144.758 105.828 145.613 105.828 146.543V146.789C105.828 147.711 105.695 148.566 105.43 149.355C105.164 150.137 104.773 150.82 104.258 151.406C103.742 151.984 103.105 152.434 102.348 152.754C101.59 153.074 100.715 153.234 99.7227 153.234C98.7305 153.234 97.8516 153.074 97.0859 152.754C96.3203 152.434 95.6797 151.984 95.1641 151.406C94.6484 150.82 94.2578 150.137 93.9922 149.355C93.7266 148.566 93.5938 147.711 93.5938 146.789ZM97.543 146.543V146.789C97.543 147.266 97.5781 147.711 97.6484 148.125C97.7188 148.539 97.8359 148.902 98 149.215C98.1641 149.52 98.3867 149.758 98.668 149.93C98.9492 150.102 99.3008 150.188 99.7227 150.188C100.137 150.188 100.48 150.102 100.754 149.93C101.035 149.758 101.258 149.52 101.422 149.215C101.586 148.902 101.703 148.539 101.773 148.125C101.844 147.711 101.879 147.266 101.879 146.789V146.543C101.879 146.082 101.844 145.648 101.773 145.242C101.703 144.828 101.586 144.465 101.422 144.152C101.258 143.832 101.035 143.582 100.754 143.402C100.473 143.223 100.121 143.133 99.6992 143.133C99.2852 143.133 98.9375 143.223 98.6562 143.402C98.3828 143.582 98.1641 143.832 98 144.152C97.8359 144.465 97.7188 144.828 97.6484 145.242C97.5781 145.648 97.543 146.082 97.543 146.543ZM114.266 140.32V143.062H106.625V140.32H114.266ZM108.23 137.168H112.18V148.863C112.18 149.199 112.219 149.461 112.297 149.648C112.375 149.828 112.508 149.957 112.695 150.035C112.891 150.105 113.148 150.141 113.469 150.141C113.695 150.141 113.883 150.137 114.031 150.129C114.18 150.113 114.32 150.094 114.453 150.07V152.895C114.117 153.004 113.766 153.086 113.398 153.141C113.031 153.203 112.641 153.234 112.227 153.234C111.383 153.234 110.66 153.102 110.059 152.836C109.465 152.57 109.012 152.152 108.699 151.582C108.387 151.012 108.23 150.27 108.23 149.355V137.168ZM121.977 153.234C120.945 153.234 120.023 153.074 119.211 152.754C118.398 152.426 117.711 151.977 117.148 151.406C116.594 150.836 116.168 150.18 115.871 149.438C115.582 148.695 115.438 147.91 115.438 147.082V146.637C115.438 145.707 115.566 144.848 115.824 144.059C116.082 143.262 116.465 142.566 116.973 141.973C117.48 141.379 118.117 140.918 118.883 140.59C119.648 140.254 120.539 140.086 121.555 140.086C122.453 140.086 123.258 140.23 123.969 140.52C124.68 140.809 125.281 141.223 125.773 141.762C126.273 142.301 126.652 142.953 126.91 143.719C127.176 144.484 127.309 145.344 127.309 146.297V147.902H116.949V145.43H123.453V145.125C123.461 144.703 123.387 144.344 123.23 144.047C123.082 143.75 122.863 143.523 122.574 143.367C122.285 143.211 121.934 143.133 121.52 143.133C121.09 143.133 120.734 143.227 120.453 143.414C120.18 143.602 119.965 143.859 119.809 144.188C119.66 144.508 119.555 144.879 119.492 145.301C119.43 145.723 119.398 146.168 119.398 146.637V147.082C119.398 147.551 119.461 147.977 119.586 148.359C119.719 148.742 119.906 149.07 120.148 149.344C120.398 149.609 120.695 149.816 121.039 149.965C121.391 150.113 121.789 150.188 122.234 150.188C122.773 150.188 123.305 150.086 123.828 149.883C124.352 149.68 124.801 149.344 125.176 148.875L126.969 151.008C126.711 151.375 126.344 151.73 125.867 152.074C125.398 152.418 124.836 152.699 124.18 152.918C123.523 153.129 122.789 153.234 121.977 153.234ZM133.086 135V153H129.125V135H133.086Z" fill="#272727"/>
<defs>
<filter id="filter0_d_13_242" x="6" y="0" width="124" height="124" filterUnits="userSpaceOnUse" color-interpolation-filters="sRGB">
<feFlood flood-opacity="0" result="BackgroundImageFix"/>
<feColorMatrix in="SourceAlpha" type="matrix" values="0 0 0 0 0 0 0 0 0 0 0 0 0 0 0 0 0 0 127 0" result="hardAlpha"/>
<feMorphology radius="2" operator="dilate" in="SourceAlpha" result="effect1_dropShadow_13_242"/>
<feOffset dy="4"/>
<feGaussianBlur stdDeviation="4"/>
<feComposite in2="hardAlpha" operator="out"/>
<feColorMatrix type="matrix" values="0 0 0 0 0 0 0 0 0 0 0 0 0 0 0 0 0 0 0.3 0"/>
<feBlend mode="normal" in2="BackgroundImageFix" result="effect1_dropShadow_13_242"/>
<feBlend mode="normal" in="SourceGraphic" in2="effect1_dropShadow_13_242" result="shape"/>
</filter>
</defs>
</svg>
