<svg width="39" height="39" viewBox="0 0 39 39" fill="none" xmlns="http://www.w3.org/2000/svg">
<path d="M23.5873 7.21988H10.3286C8.13739 7.21988 6.35612 9.00116 6.35612 11.1924C6.35612 13.3836 8.13739 15.1649 10.3286 15.1649H21.4517C24.5185 15.1649 27.0132 17.6597 27.0132 20.7264C27.0132 23.7932 24.5185 26.288 21.4517 26.288H13.7275C13.144 25.1441 12.4213 24.0767 11.576 23.11H21.4517C22.7658 23.11 23.8352 22.0406 23.8352 20.7264C23.8352 19.4123 22.7658 18.3429 21.4517 18.3429H10.3286C6.38631 18.3429 3.1781 15.1347 3.1781 11.1924C3.1781 7.25007 6.38631 4.04187 10.3286 4.04187H25.572C24.7923 5.02266 24.1264 6.08883 23.5873 7.21988ZM7.94512 35.822C5.3169 35.822 3.1781 33.6832 3.1781 31.055C3.1781 25.9892 7.94512 23.11 7.94512 23.11C7.94512 23.11 12.7121 25.9908 12.7121 31.055C12.7121 33.6832 10.5733 35.822 7.94512 35.822ZM7.94512 28.6715C7.63201 28.6716 7.32199 28.7334 7.03275 28.8533C6.74351 28.9732 6.48073 29.1489 6.2594 29.3704C6.03807 29.5919 5.86253 29.8548 5.7428 30.1441C5.62308 30.4334 5.56151 30.7435 5.56161 31.0566C5.56172 31.3697 5.62349 31.6797 5.74341 31.969C5.86333 32.2582 6.03904 32.521 6.26052 32.7423C6.482 32.9636 6.7449 33.1392 7.03422 33.2589C7.32353 33.3786 7.6336 33.4402 7.94671 33.4401C8.57907 33.4399 9.18544 33.1885 9.63244 32.7412C10.0794 32.2939 10.3304 31.6874 10.3302 31.055C10.33 30.4226 10.0786 29.8163 9.63131 29.3693C9.18402 28.9223 8.57748 28.6713 7.94512 28.6715Z" fill="white"/>
<path d="M30.1911 16.7539C27.5629 16.7539 25.4241 14.6151 25.4241 11.9869C25.4241 6.92113 30.1911 4.04184 30.1911 4.04184C30.1911 4.04184 34.9581 6.92271 34.9581 11.9869C34.9581 14.6151 32.8193 16.7539 30.1911 16.7539ZM30.1911 9.60337C29.878 9.60348 29.568 9.66525 29.2787 9.78517C28.9895 9.90509 28.7267 10.0808 28.5054 10.3023C28.284 10.5238 28.1085 10.7867 27.9888 11.076C27.869 11.3653 27.8075 11.6754 27.8076 11.9885C27.8077 12.3016 27.8695 12.6116 27.9894 12.9008C28.1093 13.1901 28.285 13.4529 28.5065 13.6742C28.728 13.8955 28.9909 14.0711 29.2802 14.1908C29.5695 14.3105 29.8796 14.3721 30.1927 14.372C30.825 14.3718 31.4314 14.1204 31.8784 13.6731C32.3254 13.2258 32.5764 12.6192 32.5762 11.9869C32.576 11.3545 32.3246 10.7482 31.8773 10.3012C31.43 9.85416 30.8235 9.60316 30.1911 9.60337Z" fill="white"/>
</svg>
